<svg id="图层_1" data-name="图层 1" xmlns="http://www.w3.org/2000/svg" viewBox="0 0 986.43 525.86"><defs><style>.cls-1,.cls-2,.cls-3,.cls-4,.cls-5,.cls-6,.cls-7,.cls-8{fill:#9bb7d1;}.cls-2{opacity:0.39;}.cls-3{opacity:0.83;}.cls-4{opacity:0.23;}.cls-5{opacity:0.68;}.cls-6{opacity:0.44;}.cls-7{opacity:0.46;}.cls-8{opacity:0.25;}</style></defs><title>mutual_aid</title><polygon class="cls-1" points="240.14 292.52 240.14 329.17 271.88 347.5 303.63 329.17 303.63 292.52 271.88 274.19 240.14 292.52"/><polygon class="cls-2" points="306.28 310.35 306.28 367.22 355.53 395.66 404.79 367.22 404.79 310.35 355.53 281.91 306.28 310.35"/><polygon class="cls-3" points="250.86 400.86 250.86 459.54 301.68 488.88 352.5 459.54 352.5 400.86 301.68 371.52 250.86 400.86"/><polygon class="cls-2" points="184.36 445.92 184.36 492.91 225.05 516.4 265.74 492.91 265.74 445.92 225.05 422.43 184.36 445.92"/><polygon class="cls-4" points="469.4 365.85 469.4 454.91 546.53 499.44 623.65 454.91 623.65 365.85 546.53 321.32 469.4 365.85"/><polygon class="cls-5" points="390.42 251.97 390.42 327.13 455.51 364.7 520.59 327.13 520.59 251.97 455.51 214.4 390.42 251.97"/><polygon class="cls-6" points="788.97 506.34 986.43 394.75 986.43 171.49 793.1 57.48 597.71 167.91 595.64 392.33 788.97 506.34"/><polygon class="cls-7" points="130.05 489.62 178.74 462.1 179.26 406.18 131.08 377.77 82.39 405.28 81.87 461.21 130.05 489.62"/><polygon class="cls-1" points="79.44 478.5 94.71 469.86 94.87 452.32 79.76 443.41 64.49 452.04 64.33 469.58 79.44 478.5"/><polygon class="cls-8" points="576.45 273.93 687.88 210.96 689.06 82.97 578.81 17.96 467.38 80.93 466.2 208.92 576.45 273.93"/></svg>