<svg id="图层_1" data-name="图层 1" xmlns="http://www.w3.org/2000/svg" viewBox="0 0 1258.54 2393.09"><defs><style>.cls-1,.cls-10,.cls-11,.cls-12,.cls-13,.cls-14,.cls-15,.cls-9{fill:#9bb7d1;}.cls-2{fill:#fefefe;}.cls-3{fill:#9a9191;}.cls-4{fill:#813030;}.cls-5{font-size:120px;font-family:AvenirLTStd-Medium, Avenir LT Std;font-weight:500;letter-spacing:-0.03em;}.cls-6{letter-spacing:-0.04em;}.cls-7{letter-spacing:-0.1em;}.cls-8{fill:none;stroke:#000;stroke-miterlimit:10;stroke-width:10px;}.cls-9{opacity:0.39;}.cls-10{opacity:0.83;}.cls-11{opacity:0.23;}.cls-12{opacity:0.68;}.cls-13{opacity:0.44;}.cls-14{opacity:0.46;}.cls-15{opacity:0.25;}</style></defs><title>mutual_aid</title><rect class="cls-1" x="269.8" width="988.74" height="607.52"/><path class="cls-2" d="M-93.87,582.89c7,5,13.78,4,19.44-3l5-1.8c1.26,1.69,2.74,2.75,5,1.76,11.22.42,22.66,1.64,31-8.46,3.52-5.47.36-9.39-3.44-12.66-4.19-3.61-5-6.49.52-9.24,7.9-4,.86-10.71,3-15.73l4.81-.55c3.34,6.43,10.09,4.79,15.42,6.51,2.79.89,7.05-2.41,8.15.29,1.69,4.13,2.71,9.58,1.42,13.64-1.76,5.53-3,10.37-1.49,16.22,1.15,4.35-3.23,6.59-6.17,8.9-13.17,10.34-11.57,17,3,25.1,15.91,8.86,30.1,5.15,44.65-1.72,8.42-4,10.11-10.27,3.44-16.8-7.25-7.12-4.61-17.37-9.88-25-2-2.86,1.7-4.29,4.79-3.06,1.86.75,3.48,3.41,5.45,2.37,13.13-6.88,9.61,3.6,9.89,9.54.33,6.78-.09,13.59,0,20.39.18,10.44,4.39,15.6,14.41,18,12.85,3.09,37.29-6.68,44.46-17.66,3.64-5.56,1.65-10.15-2.28-14.34-2.48-2.64-4.22-5.19-1-8.32s5.82-8.18,11.51-6.8c4.52,1.1,3.88,5.36,4,8.82.7,17.79,15.15,24.61,31.71,17.2,9.29-4.16,15-10.43,20.77-17.78,4.19-5.32,4.91-10.55,1.4-16.31-3.19-5.23-2.41-8.2,4.32-8.63,7.19-.45,8.8-5.71,9.3-11.69,2.45-2.07,5.06-4,6.52-7,5.11-7.39,4.62-12-1.82-16.87-1.4-1.07-3.11-1.87-4.19-3.2-3-3.66-2.46-7.91-.42-11.59,2.2-4,5.61-1.92,8.5-.48,3.55,1.76,8,2.6,6,8.73-1.83,5.7-2.65,12,3.58,15.87,5.33,3.29,10.6,2.49,14.82-2.54l.42-.3c5.57-1.68,11.39-2.82,16.67-5.16,12.57-5.58,18.22-21.43,12-34-3-6.2,1.69-8.39,4.53-11.84,4.06-4.95,5.69-.11,8.14,1.85,2.62,2.12,5.94,4,9,2.46,9.15-4.65,17.78-9,24.47-18.34,6.41-8.93,6.29-17.88,7.29-27.14.91-8.44,6.42-14.77,8.91-22.56,3.83-12,1.64-22.73-1.45-33.48-2-7.05-1.33-10.05,6-10.64,5-.39,8.4-2.49,7.95-8.22,4.8-17.4-.09-36-11.72-44.63-5.73-5.83-10.23-1.49-13.87,2.39-5.09,5.42-11.46,6.68-18.16,7.31a6.13,6.13,0,0,1-6.76-4.68c-.89-3.32,1.66-4.29,4.23-5.59,7-3.56,7.2-8.93.76-13.23-11.85-7.92-11.85-7.92-4.93-19.09l.56-2.24c5.45-8.74,14.39-6.52,22.43-7.16l5.37,0c5.36,1.9,10.65,4,16.09,5.64,6.48,1.94,10-1.43,11.09-10.15l1.8-5.9c1-.58,1.27-1.28.34-2.17l.59-3.1a2.69,2.69,0,0,0,.49-3.31l-.4-6a4,4,0,0,0-1.79-4.93c-2.53-11.26-14.47-22.18-26.5-24.23a2.55,2.55,0,0,0-2.79-2.61c3.09-12.11-4.7-21.84-8.7-31.73-3.21-8-12.74-13.28-21.38-17.14-2.5-1.12-5.25-.21-7.14,2.15-3.83.29-5,3.25-4.8,6.13.73,10.06-4.52,15.72-13.11,19.32-.65.28-1,1.36-1.41,2.07L244.75,186c-5.17,0-8.68-2-10.35-7.24-2.06-6.5-10.39-10.57-7.44-19.06l5.57-1.27c.38,1.4.67,2.82,1.14,4.19.63,1.85.94,4.63,3.93,3,2.25-1.21,2.24-3.36.52-5.18a40.42,40.42,0,0,0-4-3.35c4.12-6.49,12.56-4.59,17.68-9.14,11,1.39,16.93-2.93,19.18-14.07,2.77-13.67-5.24-28-18.41-33.34-4.07-1.66-7.89-3.93-11.81-6-4.13-2.13-8.22-3.09-12.51-.29-1.2.78-3.12,2-4,1.55-10.61-5.4-16.08,4.89-24,7.64-4.47,4.65-9.53,6.67-15.75,3.55.44-3-1.24-4.4-3.9-4.36-2.21,0-3.66,1.81-4.4,3.72-1.06,2.73.19,4.41,3,4.92l-.35,5.51c-6.07,4-10.36,2.32-13.49-4s-4.72-12.78-1.24-19.15c1.85-3.38,8.75.71,9.84-5.32,4-3.22-.23-6.41,0-9.61,1-4.39-2.77-6.23-4.91-8.82-4.16-5-5.45-9.22,2.18-12.13a9.1,9.1,0,0,0,6.31-8.72c.42-8.41-10-24.42-18-27.31-6.39-2.3-10.74-8.88-19.06-7.52-5.4.88-11,2.16-12.52,6.83-4,12.45-14.77,8.58-23,10.84-1.91.52-4.12-.19-6.17,0C87.52,32.76,83,41.72,89,51.18c.62,1,1.7,1.7,2.28,2.7C93,56.8,96.63,60.3,93,63.16c-4.44,3.46-6.59-.91-8.5-4.37-1.68-3.07-4.28-5.43-7.84-4.36-6.64,2-5.71-.65-4.81-5.63,1.37-7.54,5.08-14.11,7.15-21.3l1.52-2.77c5.48-7.5.12-12.06-5.46-14.15C67.77,7.86,61.06,4,52.74,2.93,45.29,2,38.65-4.33,30.51-6.63,20-9.62,17-10.13,10.48-1,6.8,4.13,3.77,5.26-2.64,2.82c-21.79-8.31-38.78-4.08-54,14.25-3.11,3.74-3.68,6.93.33,10.69,3,2.8,5.75,5.8,8.89,8.5,7.18,6.15,6.71,12.48-1.75,16.76-8,4.06-15.8,7.07-11.64,18.86,1.39,4-4,5.46-6.86,7-4.06,2.14-3.79-1.91-4.54-4.24a2.31,2.31,0,0,0-2.66-1.73l-3.45-3.33-1.47-.4-7.34.65C-97.41,76-108,68-118.55,70.51c-3.67.9-6.86-2.45-7.48-6.25-1.38-8.49-7.15-10.42-14.49-11.52-14.83-2.22-26.95,6-31.77,20.06-3.38,9.91-6.74,19.45-18,25.74-7.27,4.06-16.24,11.07-17.89,22.53-1.75,12.05-10.89,20.73-17.4,30.48-2.39,3.59-5.36,7.64-4.47,11.21,3.18,12.71-5.8,19.08-13.58,24-10.41,6.57-14.12,15.29-14.87,26.39a17.19,17.19,0,0,1-4.25,10.34c-6.38,7.72-8.33,17.42-8.6,26.88-.34,12.05,3.61,15.41,15.74,17.06,15.3,2.08,15,2.19,17.93,16.71A30.16,30.16,0,0,0-218.78,307c7.53,3,9.3,7.58,8.11,14.38-1.36,7.75-7.83,6.83-12.66,5.64-10-2.45-20.66-.66-30.27-5.69-5.47-2.86-9.55.94-12.56,5.41-8.73,13-7.65,28.8,1.84,41.47,5.51,7.36,9.34,15.85,10,25.24.57,7.44,4.09,12.55,10.23,16.63,3.89,2.58,6.84,6.52,10.51,9.49,2.75,2.21,5.68,6,9.58,1.36l1.78-.6c3.08.2,4.55-2.27,4.81-4.34,1.67-13,12.94-13.23,21.72-16.79-2.91,5.59-2.72,10.66,2.13,15.26,5.74,5.46,5.71,14.66,12.82,19.5,3,2.07.36,4.66-1.46,6.65-5.72,6.26-13,10.16-20.63,13.42-14.36,6.1-15.69,9-10.75,23.65,2.9,8.62,1.38,18.68,10.84,25.07,10.26,6.94,20.49,10.25,32.33,5.68,3.17-1.22,6.26-1.35,9.51-1.56,6.07-.4,9.94-3,8.66-10,0-1.17,0-2.34,0-3.52,2.14-2.19,1.48-5.13,1.49-7.6,0-10.65,10.08-10.9,15.79-15.56,1.38-1.12,3.34.52,4.62,1.8,8.2,8.26,17.47,14.53,29.38,16.05,2.33.29,3.13,3.71,6,3.26l3.28,3.92c2.41,6.43,7.28,2.64,11.22,2.69l2.44,1.17a1.55,1.55,0,0,0,1.43,2.33c.49,0,1.06-.89,1.59-1.38l4,.79c6.25,3.49,9.46,8.44,7.56,15.82l-.34.39c-2.94-1.18-4.25,1.32-6,2.73-2.59,2.09-6,3.06-8.13.87-7-7.09-17.52-8.23-24.5-15.54-3.62-3.79-10.37-3.67-13.93-8.52-.93-1.27-2.79-.8-4,.29-1.51,1.4-1.46,3.05-.45,4.8,7.63,13.26,7.59,13.34-6.52,19.21-8.29,3.44-12.37,11.59-9.06,18.18.52,1,1.31,2,2.76,1.51l3.62,3.92c4.27,12.44,13.06,21.65,22,30.79a3.1,3.1,0,0,0,1.08,1c2.8,4.54,8.78,1.81,12,5.27A3.6,3.6,0,0,0-93.87,582.89Z" transform="translate(272.12 726.13)"/><path class="cls-3" d="M237,190.74c-6.76,1-7.05,5.5-6.13,10.42,1.88,10.1,10,15,20.19,13.26,9.71-1.61,19.54-2.42,29.32-3.59-4.56,5.78-11.2,5.36-17.53,5.91-3.74.32-8.51-.26-10,3.85-1.63,4.41,3.52,6.1,5.5,9.12,6.58,10.11,11.9,4.2,17.09-1,3.71-3.75,7.46-6.79,13.1-5.77,3.73.68,5.51-3.18,8.74-3.63.57,7.46-5.27,8.65-10.16,8.82-8.76.3-11.87,7.62-16.94,12.33-1.79,1.66-2,6.52.73,8,4.79,2.67,6.84,10.23,14.46,8,5-1.43,10.39-2.9,12.89,4.09-8,.64-17-1.58-22.43,7.16,2.16-9.65-7.21-13.79-10.17-21.06-3.82-9.39-12.21-15.07-19.74-21.25-5.13-4.2-12.31.39-15.64,9.87-.46,1.32,0,3.25-1.92,3.47-2.56.28-2.51-1.84-2.75-3.57-.44-3.24-.8-7.74-5.21-6.14-3.92,1.41-.11,5,.14,7.66.15,1.62,1.49,3.15-.18,5.66-6.13-8.5-9.29-17.65-11.51-27.21a4.48,4.48,0,0,1,.38-2.5c1.28-3.12,7.79-3.47,5.58-7.87a75.8,75.8,0,0,0-11.47-16.93c-3.39-3.75-9.09-5.4-9.84-11.52a2,2,0,0,0-2.42-2,3.39,3.39,0,0,0-2.72,3.11,32.49,32.49,0,0,0,.81,11.32c1.33,5.11,1.95,10.72-6.08,11.93-2.3.34-5,2.51-6.25,4.59-4.2,6.79-10.19,6.83-16.88,5.62a33.9,33.9,0,0,0-7.91-.57c-2.68.16-4.23,2.21-1.58,3.89,7.8,5,6.11,12.88,6.71,19.94.48,5.73,1.44,11.12,4.73,15.89,2.59,3.74,4.88,7.44,2.62,12.22-1.26,2.66.48,4.05,2.63,4.48,3.39.69,2.6-2.13,3-4,.73-4-3.35-7.75-.86-12,4.45.27,2.06,4.32,3.7,6.09,1.34,1.45,2.42,4.76,4.42,3.32,8.08-5.82,6.76-.12,7.7,5.14,1,5.74,3.46,11.33,6,16.62.82,1.68,1.87,6,5.54,3.94,2.73-1.54,2.23-4.5,1.13-7.13-.76-1.82-4.44-3.79-.53-5.51,2.81-1.25,5,.26,5.44,3.78.64,4.77,3.78,4.87,7.88,4.34,11.76-1.52,23.48-3.08,31.64,9.18,2.9,4.35,7.41,2.23,9.15-1.79,3-7,10.59-10,13.57-17.16,1.7-4.11,6.65-2.34,10.36-1.69-6.92,11.18-6.92,11.18,4.93,19.1,6.44,4.3,6.25,9.67-.76,13.23-2.57,1.3-5.12,2.27-4.23,5.59a6.13,6.13,0,0,0,6.76,4.68c6.7-.63,13.07-1.89,18.16-7.31,3.64-3.88,8.14-8.22,13.87-2.39-5.31-.15-9.09,3.16-11.6,6.89-4.89,7.26-12.56,7.65-19.52,8.16-9.24.68-12.81-4.14-13.18-14.39-.07-2.14,1.44-5.71-1.61-6-3.68-.41-3.32,3.39-3.26,5.87.22,8-2.09,15.73-2.27,23.77-.18,8.47-6.43,15.24-11.72,21-5.82,6.38-15.32,2.49-15.55-6.87-.27-10.62-8.57-17.1-10.28-26.61-.63-3.53-4.32-2.77-5.19-.56-1.83,4.64-6,10.16-1.08,14.63,6.27,5.74,2.3,11.42-1.49,13.08-10.87,4.74-11,16.19-17.25,23.5-4.52,5.29-4,10.57-2.79,16.23.61,2.95,1.94,4.93,6.21,4.24a77.22,77.22,0,0,1,18.55-.5c5.64.45,11.74.42,15.08,7,2.32,4.58,8.12,4.07,12.11,6-12.42,16.09-21.35,33.48-23.9,53.68-.65,5.15-2.88,6.92-7.73,4.45-1.58-.81-3.16-1.62-4.75-2.41-12.53-6.25-14.54-5.38-18,8-.82,3.12-2.39,5.78-5.78,5.76s-5.13-2.51-6-5.64c-.57-2.08.27-5.39-3.41-5-3,.29-2.73,3.12-3.46,5.37-1.76,5.36-.53,10.22.84,15.41.81,3.1,1.72,7.85-2.65,9.29s-5.74-2.22-7.26-5.78c-3.7-8.67-7.19-8.86-12.74-1.24-.67.92-1.59,2.2-2.52,2.31-10.57,1.31-18.84,7.59-27.85,12.37-4.3,2.28-10.65,0-10,9.63.38,5.29-7.21,1.07-10.88.1-2.85-.74-4.21-4.78-7.8-5.56,2.19,19.65,15.91,23.92,30,14.13,2.52-1.75,4.87-5.59,8.35-2.85,5.34,4.2,2.36,10.41,2.71,15.79.24,3.7-2.4,4-5.27,4.35a15.41,15.41,0,0,0-6.62,2.19c-14.88,10.19-32.08,10.51-49.06,11.89-3.93.32-6-.83-8.31-4.6-5.25-8.72-11.39-16.87-14.83-26.63-.61-1.74-1.63-3.78-.84-5,4.48-6.85-1-12.38-2.43-18.22-1.7-7.14-18.53-9.41-24.4-5-5.05,3.76-6.47,7.88-5.21,13.22,1.52,6.52-5.75,6.57-7.24,10.74-5.81-1.4-11.31-4.2-17.66-3.13-2.85.47-6.3-2-6.16-4,.48-7.25-4.62-10.07-8.94-13.92-1.84-1.65-2.25-5.31-5.43-5.12-3.81.24-3.66,4-4.79,6.63a14.94,14.94,0,0,1-1.44,2.21c-7.12-2.61-10.86-13.16-5.9-18.33,3.61-3.77,4.75-12.37,14.3-7.35,3.26,1.71,10.9-.95,14-4.1a11.76,11.76,0,0,0,1.16-14c-1.58-2.61-1.92-6-3.18-10.19-4.57,7.55-9.51,11-16.33,3.46-1.95-2.15-3.64-.6-4,2.12-.92,7.44-4.19,6.44-9.35,3.26-4.41-2.71-9.7-4-14.61-5.89,1-2.85,1.86-5.79,5.61-5.91,4.32-.14,5.81-3.57,5.78-6.57-.07-6.69,3.5-5.26,7.33-4.1,1.34,4.38-2.23,11.31,6.41,11.9,3.37.23,7.82.47,7.13-3.57-.57-3.42-1.4-8.93-6.86-9.47-2.2-.21-4.52.8-6.78,1.26.32-4.79-4.47-7.13-5.4-11.32-.95-2.34.88-3.79,1.79-5.53,2.17-4.17,3.07-7.8-2.9-9.71-2.54-.81-4.81-2.52-3.92-5.84.6-2.26-1.33-5.89,2.56-6.44,2.69-.38,4.15,1.94,4.48,4.43.57,4.42,3.43,5.7,7.3,5.86A23,23,0,0,1-33,410.11c-.83,2.8.06,5.92,3,6.18,4.87.42,2.28-3.65,2.3-5.68.06-5.1-.38-10.22-.62-15.33,3.11,0,6.16-.95,7.85,3.54s7,4.51,9.82,2.61c3.67-2.45-.5-4.8-2.19-6.87s-3.08-4.33-1.05-7c2.79.16,2.59,3,4,4.3,1.09,1,3.74,1.83,3.71,1-.21-7.45,8.49-8.15,10.21-14,.51-1.73,1.5-3.34-.95-4.35-.8-.33-1.56-.76-2.34-1.15,10.19-7-7-15.72,2.7-22.66-4.62-1-5.87,1.59-6.92,3.89-.87,1.89-1.16,4.62-3.93,3.1a5,5,0,0,1-2.57-6c.53-1.72,3.88-3.1,1.32-5.12-2-1.59-4.6-.82-6.43,1-5.27,5.37-6.66-4.14-10.73-3-2.54,3.73,6.4,7.38.64,9.52-4.15,1.55-6.43-3.71-7.88-7.73a24.59,24.59,0,0,0-3.18-5.16c-.85-1.26-2.1-2.44-3.56-1.32a3.36,3.36,0,0,0-.61,3.16c1.51,3,5.37,7.12,1.19,8.95-3,1.32-8.79.41-12.05-2.93s-5-5.22-6.39,1.51c-1.11,5.39-5.15,5.77-9.25,2.09,4.43-1.23,8.81-3.35,3.82-8.05-5.87-5.51.83-10.71-.83-15.86,4.38,1.2,2.28-10.64,9.59-4.68,1.23,1,2.81-2.6,1.37-4.49-2.05-2.71-4.11-6.06-7-7.33-5.11-2.28-4.94-5.86-4.36-10.08-.59-1.81,3-5-1.34-5.36-2.46-.18-4.62-3.88-6.65-1.38-1.29,1.59-4.9,3.73-1.42,7.27,1.25,1.28.54,4.48.73,6.8A4.72,4.72,0,0,1-74,314.46c-4.36,4.21-9.5,7.39-2.32,14.27,3.25,3.11-3.22,6.69-4,10.69-.31,1.63-3,.41-3.36-.74-1.17-3.71-9.25-3.9-5.25-10,1.81-2.77.23-3.87-1.81-4.55-4.07-1.35-1.73,1.73-2.3,3.18-2.06,5.19-7,8.83-6.53,15.56.35,5.2-.39,9.91,6.25,11.33,2,.42,2.5,2.3,2.63,4.17-5.42,2.74-4,5.37-.25,8.87,2.27-3.68-.39-6.28.12-9,5.08-1.31,6-4,1.64-7.07a8,8,0,0,1-3.43-5.77c-.24-1.38-.76-3.16,1.15-3.65a4.09,4.09,0,0,1,3.26.84c2.77,2.55,5.32,5.35,8,8,.11,2-.45,4.43.43,6,3.91,7.18,5.58,12.49-6,12.38-4.65-.05-6.13,4.29-5.75,8.36.41,4.36,1.51,8.44-5.3,7.77-2.06-.2-3.07,1.4-3,3.46,0,1.56.5,2.94,2.14,3.42C-89,394.63-86,402.51-82,409.42c-.63,5.52-7,9-5.35,15.4a2.11,2.11,0,0,1-1.93,2.49c-2.36.38-3.07-1.1-3.31-3.06-.3-2.36-1.37-4.31-4-3.14-1.87.85-1,3.06-.75,4.8.83,6.48,4.15,11.35,9.06,15.52,1.8,1.53,5.14,3.08,3.72,6.27-1.19,2.64-4.24,1.2-6.43,1.44-12,1.34-17.61,8.28-15.78,19.48a10.38,10.38,0,0,0,5.52,7.57c3.45,1.93,4.09-1.87,5.93-3.48,5.88-5.15,4.5,2,6.28,3.89-4.09,4.06-8.45,8-6,14.75-2.84.44-3.64-3-6-3.27-11.91-1.52-21.18-7.79-29.38-16.05-1.28-1.28-3.24-2.92-4.62-1.8-5.71,4.66-15.77,4.91-15.79,15.56,0,2.47.65,5.41-1.49,7.6-3.44-6.89-1.26-16.94,4.62-20.22,3.16-1.76,5.92-3.54,7.7-6.94,2.37-4.55,5.83-6.46,10.83-3.11s4.65-.58,4.52-3.64c-.35-7.76-5-13.05-11.15-16.7-6.79-4-9.38-9.91-9.87-17.26q8.84,6,17.65,12.1c.72.5,1.39,1.73,2,1.67,7.71-.91,16.37-.18,22.79-3.61,4.84-2.59-3.73-13.39-10.53-16-7-2.69-17,.28-21-9.29,4.05-5.07,9.94-5.25,17-.18,2.83,2,5.34,4.47,10.69,4.16-9.13-7.27-4.86-17.49-8.13-25.81-2.79-7.14-1.08-17-12.74-18.34-2.26-.26-5-3.52-6-6-2.21-5.21-5.7-5.8-10.37-4.49,4.77-7.68-6.21-11-4.88-17.77,4.38-2.41,7.53-.76,8.33,3.66.75,4.12,3.29,3.36,5.84,3.43a4.53,4.53,0,0,0,4.81-3.14c1.08-3.08-1.39-4.08-3.3-5.43-2.13-1.5-4.2-3.1-6.21-4.58,1.24-3.5,4-2.86,6.12-2.6,3.8.45,7.45,2.81,8-4.38.24-3.44,5.19-4.54,8.21-.85,1.4,1.7,1.52,4.52,4.33,4.73,2.39-1.15,1.53-3.4,1.55-4.76.13-8.35,2.34-14.61,12.24-14.68,1.76,0,2.83-1,2.65-2.73-.28-2.68-2.34-4-4.52-4.95-2.62-1.15-7.1,1-7.36-4.23,6.67.76,6.78-2.7,5.41-7.79-.63-2.33-6.23-3.54-2-6.93,2.82-2.22,5.52-.32,8.14,1.75-1.27-8.43-6.61-10.8-15.23-7.22-3.57,1.48-6.35,5.22-11.16,2.88-2-1-3.07,1.24-3,3.17.1,1.72-1.06,4.15,2.66,4.14a33.68,33.68,0,0,1,10.27,1.73c3.78,1.22,5.38,4.3,4.88,8.32-5.94-.34-9.21-7.09-16.29-5.89-4.89.83-10.57-2.89-14.43,3.27-.34.56-2.21-.08-2.66-1.44,4.11-3.1,2-7.62,2.56-11.51.42-2.7-.84-6.45,4.17-5.77.56-2.52.65-5.27,1.79-7.49,1.32-2.57,2.94-6.69,7-3.73,3.27,2.4,6.22,3,7.85-.76,1.82-4.16-3-2.86-4.62-4.33-4-3.7-6.79-10-13.78-4.79-.89-4-2.93-7.09-7.17-8.2,3.56-5.32,9.07-2.86,12.78-1.72,6.87,2.12,10.73-1,14.55-5.3,3.33-3.74,6.72-5.85,4.69-13.54-2-7.54-8-11.78-9.75-19.09-1.2-5.11-9.38.32-13.27-3.58,1.4-.27,2.78-.58,4.19-.79,3.14-.45,5-2.14,3.73-5.27-1.11-2.73-3.89-3.93-6.44-2.31-2.23,1.41-4.15,3-7,2.82-.55-3.91-4.7-8.66,3.09-10.32-2.56-3.14-5.39-1.8-7.83-2-4.56-.34-4.23-3.58-3.66-6.44.7-3.46,3.09-2.92,5.36-1.38,1.71,1.16,3.31,2.8,5.38.67,1.91-1.95,1.49-4.34,1.11-6.68-.48-3.06-5.41-5.6-2.59-8.63,4-4.25,5.22-10.36,10.9-13.48,6.56-3.61,5.5-12.13,9.51-17.6.34-.46-.5-2.46-1.27-2.92-2.18-1.28-4,.17-5.44,1.65-7,7-13.74,14.19-18.7,22.81-2.26,3.94-5.06,7.59-8.9,9.69-8.7,4.75-9.31,14.66-14.31,21.74-2.83,4,2.29,5.66,6.08,5.69,4.9.05,9.62-1.41,11.41,6.17,1.06,4.52,6.6-.62,10,.9.51,1.16,1,2.33,1.52,3.5-7.25,1.39-14.35,4-20-4.42-2-3-6.75-.35-9.8,1.25s-2.44,4.88-1.41,7.11c2.89,6.26-1.18,13,1.85,19.4a6,6,0,0,1-3.58,7.2c-3.3,1.22-2.65,3.43-.19,5.2,5.19,3.75,4.31,9.72,2.42,13.59-1.5,3.06-5.32,8-9.83,7.24-5.56-.91-10.49-4.18-12.28-10.35,6.64,1.47,10.25-.62,9.19-8-1-7.09,2.34-12.38,6.85-17.25,2.23-2.4,3.47-5.51.81-7.73-2.85-2.39-4.3,1.55-6.39,2.75-4.38,2.5-4.92,9.95-11.82,9.15.87-8.2,8-13.05,10.85-20.53,3.75-9.79,6-20.1,10.7-29.69,3.05-6.26-2.26-12.58-7-17a61.07,61.07,0,0,1-8.91-10.84c-2.1-3.14-2.88-7.79,1.49-10.12,4.08-2.18,7.21,1,8.24,4.36,3.08,10.13,14.07,8.39,20.25,14,2.56,2.32,7-.75,8.69-4.09,1.86-3.63,7.5-6.94,3.68-11.61-7.86-9.6-7.95-23.25-17.33-32-1.33-1.24-1.62-3.72-2.15-5.69-1.21-4.48-1.79-9.54,3.13-11.63s9.4.34,11.56,5.36c1.21,2.83,4.76,4.82,3.4,8.66-4.39.06-4.5-4-6.17-6.5s-3.68-4.47-6.44-3.43c-3.47,1.31-3.76,5.79-2.14,7.49,6.58,6.88,8.72,16.32,14.55,23.51,4.51,5.57,8.47,2.3,11.6-1.33,3.7-4.28,1.43-7.32-3-9.6-3.95-2-7.49-4.63-7.89-9.67,3.26-1.33,4,1.67,5.36,3.28,3.32,3.84,6.58,3.88,10.82,1.15,3-1.92,5.86-6.93,9.75-4.35,5.85,3.87,13.57,5.54,16.63,13.23,4.71,11.79,18,17.16,29.11,12,6.29-2.93,9.16-7.53,5.69-14.2C-73,113.08-71.27,102.73-77.79,95c-1.12-1.32-.85-5,.18-6.75,2.87-4.92,2.56-10.16,2.73-15.41a2.32,2.32,0,0,1,2.67,1.73c.75,2.33.48,6.38,4.54,4.24,2.85-1.51,8.25-3,6.86-7C-65,60.09-57.19,57.08-49.17,53c8.46-4.28,8.93-10.61,1.75-16.76-3.14-2.7-5.91-5.7-8.89-8.5-4-3.76-3.44-7-.33-10.69C-41.42-1.26-24.43-5.49-2.64,2.82,3.77,5.26,6.8,4.13,10.48-1c6.48-9.1,9.49-8.59,20-5.6C38.65-4.33,45.29,2,52.74,2.93,61.06,4,67.77,7.86,75,10.58c5.58,2.09,10.94,6.65,5.46,14.15.18-6.58-2.9-10.4-9.41-11.85-3.39-.75-6.92-1.57-9.51-4.41-2-2.23-4.46-2.7-7.1-.78-3.18,2.31-6.19,3.82-8.51-1.2-1-2.24-3.08-2-3.93.1-3.74,9.12-12.95,10.15-20.6,14-3.43-4-.35-6.72,2.29-9.45C26.91,7.8,29.05,3.85,24.82.45c-4-3.22-8.44-1.8-11.64,2.22A28.62,28.62,0,0,0,9.94,7.89c-2.1,4.22-5.07,4.47-8.74,2.21C-11.39,2.37-24.73,2.79-38.33,6.54c-3.52,1-13.93,16.63-13.2,20,.69,3.19,3.8,4.3,6.2,6,4.71,3.25,7.76,7.82,7,13.45S-42.83,55.13-48.51,57c-4.54,1.5-10.41,2.64-8.35,10,2.24,8,8.44,13.06,15.3,11.31C-32.48,76-22.85,75.09-15,69.05c2.65-2,6-2.49,9.32-2.19l.34.36c-6.35,7.83-1.57,12.22,3.13,19.29,4.28,6.43,14.12,14.3,6.7,25.06a4.19,4.19,0,0,0-.12,3.34c2.3,5.89-.84,7.84-5.84,7.5-7.6-.52-8.7,4.67-9.46,10.09-.35,2.48-.79,5.88,3.89,4.56.69-.19,1.56.29,2.35.46-3.07,9.45,5.52,9.69,10.23,13,.44.31,1,1.24.91,1.42-6.21,8.48,4,15.76,1.73,23.92-.44,1.64-3,2.23-2,4.48C17,182.19,24.34,177,25.26,165.74c.31-3.78,1.15-5.68,4.48-7.33C39.68,153.52,42.27,142,50,135.05c2.66-2.4.54-4.07-2.45-4.41C44,130.23,39,132.07,37.86,127A17.69,17.69,0,0,1,41,112.72c3.47-4.48,4.16-9.17,5.46-14.35,2.3-9.15,10.48-14.19,18.66-18,5.11-2.4,10.37-4.28,13.63-9.17,2.24-3.35,2.26-7.3-.87-9.64-3.54-2.64-3.68,2.34-5.49,3.69s-3.19,4.1-5.88,2.85c-2.24-1-2.91-3.58-3.12-6-.29-3.42,1.1-6.34,2.67-9.22,2.27-4.16,4.64-8.26,4.34-13.28C70.06,33.31,73.8,29.88,79,27.5c-2.08,7.19-5.79,13.76-7.16,21.3-.9,5-1.83,7.61,4.81,5.63,3.56-1.07,6.16,1.29,7.84,4.36,1.91,3.46,4.06,7.83,8.5,4.37,3.68-2.86,0-6.36-1.65-9.28-.58-1-1.66-1.71-2.28-2.7-6-9.46-1.5-18.42,9.79-19.29,2-.16,4.26.55,6.17,0,8.2-2.26,19,1.61,23-10.84,1.51-4.67,7.12-5.95,12.52-6.83,8.32-1.36,12.67,5.22,19.06,7.52,8.05,2.89,18.46,18.9,18,27.31a9.1,9.1,0,0,1-6.31,8.72c-7.63,2.91-6.34,7.1-2.18,12.13,2.14,2.59,5.87,4.43,4.91,8.8-3.77-.7-6.08-3-8-6.27-1.28-2.15-2.91-4.22-6.45-3.18-4.19,1.23-9.32,2.64-9.88-4.37-.32-3.94,8.08-11.63,12-11.34,2,.16,4.08,1.23,6,1s4.67-1,5.45-2.41c4.93-8.92-4.25-13.54-6.7-20.25-1.38-3.82-4.21-6.13-8.23-3.36-3.6,2.48-5.82,2.53-7.06-2.1-.42-1.55-1.93-3.15-3.16-2.35-5.16,3.38-8.33,1.89-12.39-2.45-2.19-2.35-5.17,1.65-6.27,4.29s-1.17,5.74-2,8.54c-.66,2.21-3.33,5.73-4.28,4.28-5.69-8.71-14-.73-20.59-3.79A8.67,8.67,0,0,0,91.08,39.5c-1.82,4.1-.24,8.12,3.37,11,4.51,3.65,2.35,11,7.74,14.23.37.23.14,2.63-.52,3.18-5.28,4.42-6.51,11.65-10.11,16.24-6.77,8.62-.27,13.87,3.29,17,5,4.4,8,10.11,12.83,14.44,5,4.55.79,8.39-2.29,11.06S99,128.48,97.13,124c-3-7.17-8.32-1.94-12.2-1.35-4.15.63-3.48,4.6-2.19,7.92,2.46,6.34,2.57,12-.81,18.72-3.91,7.79-1.63,17.11-1.87,25.79a206.66,206.66,0,0,1-2.7,26.6c-.47,3-3.85,4.12-7.07,4.34-6.46.44-9.33,3.43-8.16,10.37,1.66,9.79-2.36,17.8-9.21,24.59-.61.6-1.71,1.56-1.56,1.92,3.61,8.63-4.72,15.79-2.82,24.37a20.84,20.84,0,0,0,5.62,9.66c4.17,3.81,3.76,4.87.25,8.5-4.8,5-3.35,7.75,3.79,9,1.72.29,3.59.23,5.12.92a3.35,3.35,0,0,1,1.95,4.4c-.67,1.69-2.31,1.62-3.77,1.29-1.72-.39-3.38-1-5.1-1.44S53,299,50.15,298.43c4.12,6.16,1.94,10.59-2.92,13.82C45.58,313.34,44,314,45,316.05c.73,1.64,2.73.52,3.79.95a171.58,171.58,0,0,0,22.32,7.28c1.25.32,1.63,2.3.82,4.82-3.39-2.55-7.31-3.16-11.24-2.88-3,.22-6.78-4.41-8.56-.44-1.29,2.88,2.28,6.25,4.84,8.74a5.06,5.06,0,0,1,.71,1.67c-3.05,2.65-5.4-.8-8.09-.92l-.43-.45.48.4c.5,1,.73,2.69,1.53,3,10.1,4.46,11,14.7,14.93,23.09.93,2,1.09,3.59-1.32,3.91-2.87.38-3.72,1.49-4.1,4.45-.22,1.68-2.19,4.44-4.93,4.24-3-.21-2.08-3-2.62-4.87-.66-2.21-2.1-3.64-4.41-3.7-3-.07-3.16,2.39-3.12,4.38.08,5.14-2.54,3.88-5.64,2.87-4.53-1.49-9-2.57-11.83,3.32a4.21,4.21,0,0,1-6.2,1.53c-3.16-2-6.37-1.28-7.46,1.54-.94,2.46.4,6.4,3.06,7.62,9.49,4.39.51,11.51-.21,11.73-7.4,2.22-7.78,11.29-15.42,14.06-5.09,1.84-3.59,10.06.08,14.83,2.55,3.31,14.51,1.23,16.49-3.23,3.53-7.94,5.92-4.83,7.71.42,1,3,2.46,3.59,5.08,3.44,3.59-.21,7.27-.76,7.31,4.84,0,4,1.22,8.24-5.41,7.43-1.37-.17-2.75,1.21-1.66,3.09s2.66,2.09,4.59,1.53c11.82-3.46,12.8-2.88,17.41,9.57.83,2.24,2.35,4.84,4.94,4.07,2.8-.84,2.27-4.25,1.57-6.15-1.49-4.08-3.3-8.6-8.06-9.79-5.42-1.36-5.47-5.57-5.69-9.52-.17-3.11,2.46-3.77,5-3.4,4.67.67,8.56,2.42,9,7.94a43.29,43.29,0,0,0,.45,6.17c.51,2.19,2.58,4.48,4.33,2.32,6.65-8.19,6.66-1.53,8.07,3.14.73,2.44,2.66,4.16,5.43,3.06,2.4-.95,4-3.2,3.07-5.7-1.15-3.22-2.06-6.81-5.88-8.38s-4.9-5.74-7.26-8.69c-.78-1-1.23-2.08.09-3,1.06-.72,2.43-.9,3.21.11,3.57,4.61,7.3,8.72,12.65,11.68,3.08,1.7.65,20.1-2.72,22.75A13.36,13.36,0,0,0,77,468.27c-1.78,6.65,3.23,11.38,9.9,10.48C92.56,478,97.56,475.1,104,476c4.45.62,10.64-2.92,11.47-10.29-.25,6,10.58,6.36,6.35,14-.22.39,3.16,1.76,4.25-.21,2.34-4.26,6.23-4.57,10.39-5.48,6.36-1.41,8.68-7.23,4.4-11.52-8.28-8.32-9.74-19.68-14.33-29.59-3.59-7.75-12.73-14.84-21-15.86-6.74-.83-13.25-4.05-18.22,4-.51.83-6.59.07-9.53-2.12-6.6-4.93-13.46-9.57-19.66-15-4.47-3.89-2.74-8.41,2.27-11.58,8.88-5.62,18.58-7.09,28.69-7.82,2.4-.17,4.68-2,7.38-3.26-3-2.61-4.74.29-6.84.33-4,.07-5.82.15-5.5-5.68.51-9.35,4.83-15,11.78-20.09,2.62-1.9,5.16-3.37,8.07-2.28,8.65,3.24,17.16,6.84,25.71,10.32,4.67,1.9,6.24,4.92,4,9.83-.81,1.78-.69,4.06-.7,6.11,0,1.67-.41,3.78,1.67,4.61s2.81-1.32,4.15-2.29c4.51-3.24,6.89-12,15.49-5.53,1.76,1.32,5-3.51,6.42-6,1.53-2.63-1.68-2.66-3.58-3.37-2.37-.88-6.26-16.13-4.72-18.3,4-5.66-2.87-9.57-2.17-14.56,1.94-2.67,5.69,2.13,6.86-1.43,1-2.93-1.78-5.17-4-6.17-5.63-2.51-3.35-5.68-1.59-9.3,2.75-5.66.14-9.25-4.68-12.49-5.37-3.62-8.11-.58-10.69,3.31-7.36,11.1-18.89,9.7-29.81,10-1.69.05-3.38-.92-5.11-1.27-2-.41-5.38,1.23-5.26-2.66.08-2.93,2.81-2.33,4.81-2.43,1.39-.07,3.33.29,3.27-1.82a3.28,3.28,0,0,0-3.55-3.2c-2.91.18-5.77,1.24-8.67,1.32-2.6.08-3.74-2-2.92-4.29,1-2.89,2.43-1.2,3.81,0,1.18,1,2.69,1.43,3.84-.06a2.24,2.24,0,0,0-.87-3.67c-8.31-3.27-8.94-11.1-11.06-18.09C82.33,274.53,86,267.43,94,264.54c5.62,3.46,3,11.65,9.38,16.09.55-6.47-3.89-10.57-4.24-15.64-1.78-7.81,0-11.1,8.86-8.34S119,252,119.53,246c.79-8,4.11-12.08,11.88-13.9,5.46-1.28,6.59-6.94,2.6-11-9.2-9.3-18.66-18.24-22.24-31.61-1.11-4.15-1.86-7,3.54-7.43,1.88-.17,4.3-.74,4.28-2.42-.1-9.11,7.27-9.43,13-11.26,6.28-2,10-5.86,8.72-12.32-1.28-6.63-7.51-8-13-8.26-3.55-.15-6.24.85-6.76-4-.44-4.08-3.92-3.58-6.86-3.85-2.17-.2-5,1.24-6.33-1.66-1.45-3.09,1.17-4.77,2.6-6.94,6.45-9.76,16.25-13.24,27.15-14.7,2.89-.39,6.55,0,6.89-3.93.33-3.77-2.95-5.5-5.84-7a10.37,10.37,0,0,0-4.19-1.28c-5.35-.23-9.55-2.78-10.51-7.81-1-5.37,1.11-10.54,5.47-14.21s8.88-4,13.73-.4c3.45,2.54,6.87,3.14,11.38.62,4.22-2.37,9.81-3.11,12.78,3.16,1.27,2.67,3.84,2.31,6.16,2.51-1.09,6-8,1.94-9.84,5.32-3.48,6.37-1.88,12.87,1.24,19.15s7.42,8,13.49,4c.91,8.79,2.18,17.09-6.07,24.24-6.09,5.29-4.6,9.49,2.73,13.34,2.48,1.3,3.06,3.17,3.42,5.66,1,7.34,5.14,9,11.75,4.54,4.11-2.8,7.75-6.25,12.19-8.71,3.18-1.76,6.28-2.6,9.08-.36,4.49,3.61,9.7,3.72,14.94,4.13-3,8.5,5.37,12.57,7.43,19.07,1.67,5.27,5.18,7.28,10.35,7.24C243.59,189.86,240,190.32,237,190.74ZM44.09,256.24a1.48,1.48,0,0,0,1.24-.72c.31-2.19-1.34-3-2.91-3.75.73-3.73,1.29-7.49,2.26-11.15.53-2,1.83-3.72-1-5.12-2.5-1.25-3.84-.22-4.95,1.83s-3,3.29-3.72,5.78c-1.25,4.35-3.33,8.9-7.52,1.62-1.31-2.28-3.6-1.77-5.53-1.27a3.54,3.54,0,0,0-2.23,2.27c-.36,2.6,1.62,3.73,3.76,4,6.25.72,4.2,8.87,10.28,10.69.23-5.54.76-11.33,8.69-8.68C43,253.24,41.93,255.37,44.09,256.24ZM4.42,217.12c-7.16-7.22-5.65-14.89-1.66-22.91.72-1.44,2.56-2.78,0-5.17a85.86,85.86,0,0,1-23.4-37.91c-1.66-5.52-5.23-4.58-8.32-5.55a5.33,5.33,0,0,0-6.84,4.19c-1.7,9-10,14.38-12.3,22.94-.22.82-1,2.26-1.17,2.21-13.1-3.51-6.11,5.25-6.6,10.08-.33,3.33-3,6.36-4.2,9.67-1.7,4.59-2.23,7.82,5.08,7.12,6.94-.67,14.83-1.71,19.1,6.8.73,1.47,3.32,2.65,5.16,2.81,12.25,1-.49,7.6,2.44,10.61-3.9,3-5.59-.61-6.74-2.86-3.71-7.18-6.69-3.6-7.56.95-1,5.34-9,10.6-.76,16.78,2.1,1.58.84,4.36-2.6,4.55a28.51,28.51,0,0,1-8.23-1.08c6.39,3.52,6.67,8.73,4.32,14-1.91,4.27-.86,7.9.43,11.78.56,1.66,2,3.79,1.44,4.95-6.86,14.26,11.69,14.38,13.34,24,.31,1.77,3,.6,4-1.18,1.76-3.2,3.72-8.53.68-9.62-11.29-4-6.32-17.47-14.42-23-1.07-.73-.79-2.94.74-3.79s3.52-1.06,4.62.86c2.19,3.84,4.67,7.5,5.71,12a14.52,14.52,0,0,0,7.44,9.37c1.81,1,3.13-1.31,3.43-3.06.86-4.93,2.06-10.41-2.41-14-3-2.37-5.1-4.44-5-8.47,5.1-1.17,5.05,4.29,7.92,5.69,5.05-6.63,5.05-6.63-2.06-8.15-7.61-1.64-16-15.92-14-23.61.55-2.06,2-3.67,3.56-2,3.08,3.2,10.69.27,10.48,8.22C-24,236.2-20,237.5-16.75,237c-.35-7.89-3.3-15.78-.8-23.66,3.77-.49,3.58,2.45,4,4,1,4,3,4.82,6.29,2.61,4.8-3.25,7.61-1.71,9.1,3.48.12,1-.44,2.43.95,2.52.62,0,1.34-1.34,2-2.08C5.47,221.54,6.36,219.08,4.42,217.12Zm33.91,80.59c6.12-1.27,5.73-5.81,7-9.73,1.92-6-3.71-6.26-6.74-8.21.44-3.09,12.65-4.82.7-8.91-2.33-.8-2.58-4.75-3.12-8.63-3.94,9-8.65,10.06-15,4.65-3-2.57-5.22-6.24-10.42-4.7-2.54.75-3.5-2.42-4.94-4.28-2.26-2.92-3.75-7.26-7.95-7.63-3.88-.34-10.23-1.59-10.81,2.93-.62,4.87-6.69,10.21-.54,15.4A10.8,10.8,0,0,1-11.21,271c-5.11,6.68-.68,16.06-6.28,22.42-1.52,1.71-2.18,2.89-.15,4,6.65,3.77,2.5,7.23-.35,10.4-2.63,2.92-3.73,8.53-.92,8.27,5.25-.47,7.79,12.8,13.9,2.5,1.79-3,5.93-3.58,7.58-7.16.3-.67,7.66-4.92,7,3-.22,2.71,1.29,4.48,3.24,4.32,4.59-.37,7.1,3.21,12.08,6C18.9,309.29,23.38,300.82,38.33,297.71ZM-96.95,153.37c-.9-2,.37-5.77-2.64-5.74s-4,3.23-3.2,6c.88,3-.4,3.5-2.86,3.88-2.86.44-5.65,1.36-8.49,2-1.9.39-4.54-.4-5,2.39-.41,2.6,1.69,4.25,3.35,5.88s4.5,3.27,6.22,1.31c3.39-3.83,6.71-6.71,12.25-6.67,1.57,0,1.32-2.92,1.2-5.37A15.76,15.76,0,0,0-96.95,153.37Zm115.39,182C13.59,328,7.57,322.23-2.83,325.69c.79,3.26,3.68,3.2,6,4s4.86,2.24,3.62,4.95c-2.72,5.94-.87,6.17,4.68,5.45,4.45-.58.44,6,5,7.39C19.79,344,21.37,339.88,18.44,335.4ZM150,168.68c-4.39.45-9.07,1.41-8.05,6.88.8,4.26,2.42,9.26,9,8.88,5.74-.33,6.22-3.33,4.74-7.28C156.07,172.38,156.61,168,150,168.68Zm-.78,234.37c-2.78,2.26-2.79,5.55.06,7.56,4,2.84,4.29-1.28,6-3.58,3.89-5.4,2.65-11.91,4.51-17.71.56-1.76,3.23-4.88-.59-5.85s-4.94,2.4-5.8,5.26c-.32,1,.1,2.31.18,3.47C153.8,396.48,152.76,400.14,149.19,403.05ZM15.38,200.25c-.94.94-3.9-.72-3.85,2.07.05,2,1.78,2.93,3.71,2.88,4.55-.13,8,.51,5.33,6.39-.22.48.45,1.37.71,2.07,1-.41,2.51-.52,3-1.27,2.57-4.11,2.51-9.46,6.28-13.13.76-.74-.53-2-2.26-2.16C25.51,203.41,19.24,196.37,15.38,200.25Zm-90-6.56c-1.66,4.53-4.69,3.7-7.68,1.68-2-1.36-4.17-3.38-5.92-.54-1.6,2.58,2.15,2.85,2.82,4.18C-83,203.89-80.13,204.56-75,203c4.44-1.39,7.33-5.48,4.88-9.73a6.94,6.94,0,0,0-1.66-1.53A2.79,2.79,0,0,0-74.61,193.69ZM-117,214.15c-.61,2.87,2.42,4,4.78,3.82,4.92-.46,6.28,3.38,8.81,6.11,1.41,1.51,3.81,3.64,6.1,1.34,2.94-2.94-.18-4.12-2.2-4.92-4.43-1.74-2.71-7.62-6.87-9.6-1.38-.66-1.75-3.09-4.28-3.11C-113.58,208.88-116.37,211-117,214.15ZM50.77,456.3c.17-3.69-3.54-7.43-7.4-6.86-3.06.46-8,1.31-8.13,6.37-.07,4.36,2.47,6.29,6.95,5.6C46.17,461.65,50.56,460.67,50.77,456.3ZM-60.49,111.53c3.08-.26,6.89-.66,6.57-4.28-.4-4.43-3.07-8.8-8.11-9.12-4-.25-3.79,3.67-4,8.13C-66.25,108.72-65.78,112-60.49,111.53Zm138,409c-.85-3.53-4.09-6-7.09-4.75s0,3.92,1.12,5.8c1.77,3,1.55,6.28.78,9.38-.71,2.82-1.55,5.73,2.31,6,4.29.28,2.62-3.6,3-5.89a21.61,21.61,0,0,0,0-3.51h0C77.62,525.21,78.06,522.76,77.52,520.55ZM-119,192.09a7.83,7.83,0,0,0,.54-7.63c-1-2.19-2.91-1.66-3.82.41-.78,1.76-1.64,3.07-3.74,3.16-2.82.12-7-.69-6.44,3.67s5.47,2.22,8,3.75C-121.31,196.38-120.3,194.09-119,192.09Zm283,106c-1.29,1.63-1.47,5,1.06,6.24,2.92,1.46,2.92-1.64,3.85-3.3,2.92-5.16,10-9.37,3.06-17.45C169.11,289.1,167.21,293.93,163.92,298.11Zm-16-19.37c.87,3.63,2.3,9.54,6,9.1s3.17-6.81,4.38-10.44c1.15-3.41-3.24-1.72-4.94-2.47C150.44,274.92,147,275,147.88,278.74Zm37.86,5.51c-1.79-3.36,1-9-4-10.11-2-.47-7.25,1.64-6.63,4.22.94,3.84,4.42,7.06,6.61,10.25C185.05,288.14,186.66,286,185.74,284.25Zm-1.93,100.11c-4.15,0-7,2-6.6,6.28.39,4.1,3,9.67,6.29,9.3,6.26-.71,1.92-8,4.47-11.11C188.59,384.92,186.3,384.38,183.81,384.36ZM-64.58,253.13A3.79,3.79,0,0,0-61,248.2c-.55-2.31-2.54-2.85-4.71-3.1-3.76-.44-3.2,2-3.38,4.41-.25,3.28-6.42,6.32-.2,9.92C-67.19,257.81-68.71,253.53-64.58,253.13Zm98.05,89.2c-1.41,3.42,2.4,5.56,5.05,6.61,1.76.69,5.33-.73,5.21-3.09a12.5,12.5,0,0,0-6-10.16C34.06,336.24,34.35,340.18,33.47,342.33ZM82,102.44a7.29,7.29,0,0,0,5.58,4.89,1.82,1.82,0,0,0,2.15-2.08,12,12,0,0,0-3.88-7.56c-2.6-2.29-5.5-2.8-8.75-.81C77.65,99.74,81.21,99.57,82,102.44ZM-85.45,301.89c.93.14,2.64-1.39,3.12-2.52.71-1.67-.73-2.71-2.31-2.85-3.16-.29-5.27-2.3-7.51-4.16-.89-.73-1.92-1.61-3-.56-.53.51-.58,1.51-.93,2.52A14.4,14.4,0,0,0-85.45,301.89Zm-10.72-92.77c3.66-.11,5-3,5.1-6,.11-3.34-2.85-3.56-5-2.77-2.42.87-6.13.11-6.81,4C-101.62,207.48-99.37,209.21-96.17,209.12Zm227.49,43.32c2,.49,3.58.58,4.34-1.4.82-2.14-1.17-2.53-2.46-2.5-4.8.09-2.75-10.29-10.36-6.22C126.21,245.4,125.85,251.08,131.32,252.44ZM-27.26,101.85a2.39,2.39,0,0,0-3.65-2.34c-2.93,1.79-8.26-1-9,3.48-.55,3.29,3.58,2.91,5.74,3.14C-30.56,106.29-27.61,105.65-27.26,101.85Zm230.36,236c.07,1.71,1,4.4,3.5,4.34,3.44-.08,2.1-2.56,1.7-4.44-.68-3.24,3.38-5.44,1.9-9.25C204.07,328.89,202.91,333.13,203.1,337.89Zm-5.88-33.59c1,2.8-.29,7.72,5,7.47,1.92-.09,4.44-1.26,3.79-3.74-.84-3.15-1.23-7-5.45-7.91C197.93,300.43,196.53,302.38,197.22,304.3ZM167,348.87c.55-2.45,5.77-4.85,1.63-7-3.11-1.61-3.67,3.6-5.51,5.6-2.13,2.32-2.35,5.17-.31,8.52C165.92,354,166.39,351.38,167,348.87Zm-1.29,55.18c-1-1.57-3.62-.32-4.57.92-2.85,3.7-2.72,7.38,1.8,10.93C164.62,411.52,168.29,408.27,165.67,404.05ZM68.55,471.59c-.5-4.33,3.69-8.22,1.21-12.66a2.48,2.48,0,0,0-2.24.1c-3.62,4.17-.79,8.9-2.44,15.39C67.78,472.25,68.58,471.88,68.55,471.59ZM-64.45,268c.75-1.86-.07-3.53-2.34-3.64s-2.61,1.65-2.61,3.53c0,4.32.83,8.33,4,11.74C-65.7,275.58-66,271.74-64.45,268Zm190.18-80.05c3.56,1.83,7.47,4.08,11.21,1.81s.46-5.28-5.26-4.35c-2,.33-4,.54-6.42.86C125.57,187.39,125.56,187.83,125.73,187.92Zm-95.45,35.8c4.22,1.2,8.39,2.56,13.53.65C39.23,214.77,34.71,223.4,30.28,223.72ZM7.86,465.11c.87-2.15,1.68-4.49-.19-6.53a2.61,2.61,0,0,0-2.35-.5c-3.29,1.35-1.09,3.7-1.14,5.81-.06,2.33-1.36,4.63-2.37,7.71C7.36,471.26,6.87,467.6,7.86,465.11ZM35.74,190.48l13.09.61c-.65-4.8-5.71-4.42-6.31-8.4C40.11,185.26,40.25,188.11,35.74,190.48ZM60.88,494.37c3.06-1.05,4.17-4,4.51-7,.26-2.19-1-4.78-3.26-4.07-3.77,1.18-1.57,5.74-3.38,7.84C58.52,493.26,59.15,495,60.88,494.37Zm14.61-320c.59-1,.52-3.16-.36-3a92.82,92.82,0,0,0-10.25,3.23C68.92,176.59,72.82,178.72,75.49,174.37Zm90.1-10.25c.27,2.22.75,5,3.7,5,1.53,0,3.76-.85,3.76-2.91a4.75,4.75,0,0,0-4-4.91C167.09,161.3,165.31,161.86,165.59,164.12ZM109.44,370.93c.09-.19-.83-1.22-1-1.15-4.84,1.72-5.81,6.6-10.18,11.42C106,379.54,107.47,375,109.44,370.93Zm-200-121c.07,1.76.85,4.14,2.54,3.73,2.17-.53,3.4-2.92,3.86-5.32.3-1.58.13-2.86-1.89-2.93C-88.06,246.46-90.64,246.94-90.53,250ZM7.88,398.14c-.17-2.89-3.1-1.89-4.9-2.2s-4.64-.88-4.47,2.2c.15,2.83,3,1.89,4.88,2.28C5.29,400.39,8.05,401.27,7.88,398.14ZM-168.78,165.85c2.18.37,3.15-1,3.14-3.07s-1.26-3.11-3.23-3.35a3.5,3.5,0,0,0-4.12,2.35C-172.06,163.63-171,165.47-168.78,165.85Zm70,15c4-3.49,5.45-7,4.74-11.56C-97.17,172.2-100.25,175.12-98.74,180.88Zm10.83-36.07a2.32,2.32,0,0,0-2.11-.59c-3.22,2.3-2.81,5.39-1.34,9.64C-88,150.89-86.81,148.19-87.91,144.81ZM141,405.89c.39.14,1.64-.84,1.77-1.46.86-4.05-1.92-5.16-5.25-6.91C136.82,401.88,137.44,404.62,141,405.89Zm-230.46-2.37c-1.7-3-3.84-5.87-7.66-6.34-1.09-.14-2.79.76-2.2,1.94,1.71,3.4,5.22,4.89,7.67,6.83C-89.44,405.78-88.89,404.5-89.44,403.52ZM185.85,374a4,4,0,0,0,3.7-4.09c0-1.66-1.17-2.59-2.89-2.35-2.31.32-3.48,1.81-3.76,4.06C183.21,373.29,184.11,374.28,185.85,374Zm-68.4-11.31c-3.28,5.14-2.06,8.7-.42,12.23C119,371.42,119.62,367.9,117.45,362.72ZM-75,274c-7.29-2-5.77,4-6.66,7.05ZM30.62,455.13a2.6,2.6,0,0,0,.83-2.11c-.09-.57-1.11-1.48-1.55-1.39-1.31.27-1.47,1.42-1.09,2.95C29.32,454.75,30.33,455.37,30.62,455.13ZM137.75,236.89a1.63,1.63,0,0,0-1.45-.55c-2.23.87-1.67,2.65-1.05,5.2C137,240.07,138.34,238.9,137.75,236.89Zm11.79,11.94c0,.59.76,1.23,1.18,1.84.54-.53,1.38-1,1.51-1.61s-.54-1.29-1.07-2.38C150.39,247.64,149.57,248.22,149.54,248.83ZM-20.38,286.5c.89.35,1.83-.42,1.4-1.27a5.5,5.5,0,0,0-2.4-1.94c-1.13-.6-1.34.25-1.42,1.53A11.3,11.3,0,0,0-20.38,286.5Zm-102.09,79.92a4.13,4.13,0,0,0,1.11-2c0-.94-.73-1.59-1.6-.83a6.7,6.7,0,0,0-1.1,2.15A8.33,8.33,0,0,0-122.47,366.42ZM9.28,379.34c.78.2,1.89-.09,1.6-1.19a3,3,0,0,0-1.76-1.71c-.86-.27-1.62.3-1.61,1.77A6,6,0,0,0,9.28,379.34Zm-97.09-97.61-.5.1.32.58ZM69.73,56.78a1.42,1.42,0,0,0-.23.53l1-.07-.28-.51C70.06,56.74,69.83,56.69,69.73,56.78Z" transform="translate(272.12 726.13)"/><path class="cls-4" d="M325.7,347.49c-3.25,3.32-6.53,5.51-11.77,6-6.92.61-11.61,8.48-19.75,7.46-1.33-.17-1.87,2.88-1.12,4.59,1,2.36,3.22,2.2,5.33,1.75,10.27-2.23,12.52.07,13.06,10.87a61.42,61.42,0,0,1-8.2,34.81c-3.2,5.59-3.1,13.09-2.88,19.92.11,3.64.26,7.08-4.4,8.38-2,.56-3.92,2.42-3.88,4.49.24,11.5-10.27,12.89-16.91,16.83-5.9,3.49-9.09-2.92-11.07-7.94-1.49-3.77-2.68-7.47-8-5.84-1.11.35-12.26,20.45-11.92,21.58.6,2,.83,4.34,2.1,5.77,2.78,3.12,5.86,5.7,4.1,10.65-2.21,6.25-2.12,13.5-9.05,17.45-2.38,1.36-4.54,2.84-7.32,2.46-6.37-.87-9.91,2.32-11.91,7.93l-.41.29c-15.23,1.6-16.3.46-14.07-15.89.71-5.25-1.66-8.21-6-10.61-4.6-2.54-8.75-6.65-14.38-2.43-3.48,2.61-7,5.22-10.31,8-6,5-6.23,11-.93,16.63a4,4,0,0,0,3.83,1.37c14.65-1.7,15.3-1.12,15.36,13-1.45,3-4.06,5-6.52,7-5,10.55-13.32,9.53-22.32,6.4-1.33-.47-2.93-.21-4.41-.19s-3.23.23-3.3,2.09,1.61,2,3.1,2.35c8.79,2.21,14.13,16.5,9,23.91-12.07,17.41-22.6,21-39.76,14.67-4.34-1.6-5.43-3.7-5.25-7.65a48.3,48.3,0,0,0-.1-8c-1.58-12.66-7.41-15-17.65-7.17-2.34,1.79-4.31,4.11-6.76,5.68-5.64,3.6-5.21,7.84-.78,11.48,7.38,6,5.89,9.8-.11,16.92-11.81,14-33.68,9.8-42.15-1.69a11.41,11.41,0,0,1-1.86-9.23c1.53-9.07,1.24-18.22,1.71-27.34.36-7.09-3.26-10.19-9.32-6.3-4.5,2.9-6.64,2.23-9.31-1.47-1.77-2.45-3.29-3.21-6.32-.72a9,9,0,0,1-10,1.07c-1.44-.77-3.17-2.4-4.78-.79a4.58,4.58,0,0,0-.29,5.81c9.13,11,9.87,25.71,17.29,37.35,2.45,3.85,2.91,6.69-2.73,5.34-3.86-.92-5.67.89-7.39,3.18-2.52,3.34-4.75,6.41-9.14,2.52-.91-.81-2.31-1.55-3.16-.53-8.51,10.16-15.51-.61-22.84-2.15-5.58-1.17-7.19-6.79-2.59-11.88,2.16-2.39,4.39-4.87,7.67-5.85,3.68-1.1,6.31-4.59,4.94-7.26C-6,560.68,4.86,556.12,9.51,548.88c.57-.89,2.19-1.07,1.81-2.65-12.4-4.59-13.24-9.38-3.28-19,2.87-2.78,4.6-6,4.11-10.08q0-4.08,0-8.16c1.48-4.18,8.75-4.23,7.23-10.75-1.26-5.34.16-9.46,5.21-13.22,5.87-4.38,22.7-2.11,24.4,5,1.39,5.84,6.91,11.37,2.43,18.22-.79,1.2.23,3.24.84,5,3.44,9.76,9.58,17.91,14.83,26.63,2.28,3.77,4.38,4.92,8.31,4.6,17-1.38,34.18-1.7,49.06-11.89a15.41,15.41,0,0,1,6.62-2.19c2.87-.37,5.51-.65,5.27-4.35-.35-5.38,2.63-11.59-2.71-15.79-3.48-2.74-5.83,1.1-8.35,2.85-14.1,9.79-27.82,5.52-30-14.13,3.59.78,4.95,4.82,7.8,5.56,3.67,1,11.26,5.19,10.88-.1-.67-9.59,5.68-7.35,10-9.63,9-4.78,17.28-11.06,27.85-12.37.93-.11,1.85-1.39,2.52-2.31,5.55-7.62,9-7.43,12.74,1.24,1.52,3.56,3,7.19,7.26,5.78s3.46-6.19,2.65-9.29c-1.37-5.19-2.6-10.05-.84-15.41.73-2.25.43-5.08,3.46-5.37,3.68-.34,2.84,3,3.41,5,.85,3.13,2.69,5.62,6,5.64s5-2.64,5.78-5.76c3.49-13.35,5.5-14.22,18-8,1.59.79,3.17,1.6,4.75,2.41,4.85,2.47,7.08.7,7.73-4.45,2.55-20.2,11.48-37.59,23.9-53.68-4-1.92-9.79-1.41-12.11-6-3.34-6.58-9.44-6.55-15.08-7a77.22,77.22,0,0,0-18.55.5c-4.27.69-5.6-1.29-6.21-4.24-1.17-5.66-1.73-10.94,2.79-16.23,6.24-7.31,6.38-18.76,17.25-23.5,3.79-1.66,7.76-7.34,1.49-13.08-4.89-4.47-.75-10,1.08-14.63.87-2.21,4.56-3,5.19.56,1.71,9.51,10,16,10.28,26.61.23,9.36,9.73,13.25,15.55,6.87,5.29-5.8,11.54-12.57,11.72-21,.18-8,2.49-15.76,2.27-23.77-.06-2.48-.42-6.28,3.26-5.87,3.05.34,1.54,3.91,1.61,6,.37,10.25,3.94,15.07,13.18,14.39,7-.51,14.63-.9,19.52-8.16,2.51-3.73,6.29-7,11.6-6.89C325.61,311.45,330.5,330.09,325.7,347.49ZM276,414.68a3.89,3.89,0,0,0,4.94-4.5c-.83-4.78-5-7.17-9.29-8.05-3.07-.62-3.46,2.32-3.54,4.19C268.16,412.13,271.9,413.81,276,414.68Z" transform="translate(272.12 726.13)"/><path class="cls-4" d="M94,264.54c-7.94,2.89-11.64,10-9.32,17.68,2.12,7,2.75,14.82,11.06,18.09a2.24,2.24,0,0,1,.87,3.67c-1.15,1.49-2.66,1.1-3.84.06-1.38-1.21-2.79-2.9-3.81,0-.82,2.31.32,4.37,2.92,4.29,2.9-.08,5.76-1.14,8.67-1.32a3.28,3.28,0,0,1,3.55,3.2c.06,2.11-1.88,1.75-3.27,1.82-2,.1-4.73-.5-4.81,2.43-.12,3.89,3.22,2.25,5.26,2.66,1.73.35,3.42,1.32,5.11,1.27,10.92-.32,22.45,1.08,29.81-10,2.58-3.89,5.32-6.93,10.69-3.31,4.82,3.24,7.43,6.83,4.68,12.49-1.76,3.62-4,6.79,1.59,9.3,2.25,1,5,3.24,4,6.17-1.17,3.56-4.92-1.24-6.86,1.43-.7,5,6.21,8.9,2.17,14.56-1.54,2.17,2.35,17.42,4.72,18.3,1.9.71,5.11.74,3.58,3.37-1.44,2.45-4.66,7.28-6.42,6-8.6-6.47-11,2.29-15.49,5.53-1.34,1-2,3.16-4.15,2.29s-1.67-2.94-1.67-4.61c0-2-.11-4.33.7-6.11,2.24-4.91.67-7.93-4-9.83-8.55-3.48-17.06-7.08-25.71-10.32-2.91-1.09-5.45.38-8.07,2.28C89,360.92,84.69,366.6,84.18,376c-.32,5.83,1.46,5.75,5.5,5.68,2.1,0,3.84-2.94,6.84-.33-2.7,1.24-5,3.09-7.38,3.26-10.11.73-19.81,2.2-28.69,7.82-5,3.17-6.74,7.69-2.27,11.58,6.2,5.4,13.06,10,19.66,15,2.94,2.19,9,2.95,9.53,2.12,5-8,11.48-4.8,18.22-4,8.22,1,17.36,8.11,21,15.86,4.59,9.91,6,21.27,14.33,29.59,4.28,4.29,2,10.11-4.4,11.52-4.16.91-8.05,1.22-10.39,5.48-1.09,2-4.47.6-4.25.21,4.23-7.67-6.6-8-6.35-14-.83,7.37-7,10.91-11.47,10.29-6.45-.9-11.45,2-17.11,2.75-6.67.9-11.68-3.83-9.9-10.48A13.36,13.36,0,0,1,81.69,461c3.37-2.65,5.8-21.05,2.72-22.75-5.35-3-9.08-7.07-12.65-11.68-.78-1-2.15-.83-3.21-.11-1.32.91-.87,2-.09,3,2.36,2.95,3.4,7.1,7.26,8.69s4.73,5.16,5.88,8.38c.89,2.5-.67,4.75-3.07,5.7-2.77,1.1-4.7-.62-5.43-3.06-1.41-4.67-1.42-11.33-8.07-3.14-1.75,2.16-3.82-.13-4.33-2.32a43.29,43.29,0,0,1-.45-6.17c-.45-5.52-4.34-7.27-9-7.94-2.57-.37-5.2.29-5,3.4.22,3.95.27,8.16,5.69,9.52,4.76,1.19,6.57,5.71,8.06,9.79.7,1.9,1.23,5.31-1.57,6.15-2.59.77-4.11-1.83-4.94-4.07-4.61-12.45-5.59-13-17.41-9.57-1.93.56-3.54.27-4.59-1.53s.29-3.26,1.66-3.09c6.63.81,5.44-3.4,5.41-7.43,0-5.6-3.72-5.05-7.31-4.84-2.62.15-4.06-.44-5.08-3.44-1.79-5.25-4.18-8.36-7.71-.42-2,4.46-13.94,6.54-16.49,3.23-3.67-4.77-5.17-13-.08-14.83,7.64-2.77,8-11.84,15.42-14.06.72-.22,9.7-7.34.21-11.73-2.66-1.22-4-5.16-3.06-7.62,1.09-2.82,4.3-3.57,7.46-1.54a4.21,4.21,0,0,0,6.2-1.53c2.83-5.89,7.3-4.81,11.83-3.32,3.1,1,5.72,2.27,5.64-2.87,0-2,.16-4.45,3.12-4.38,2.31.06,3.75,1.49,4.41,3.7.54,1.82-.34,4.66,2.62,4.87,2.74.2,4.71-2.56,4.93-4.24.38-3,1.23-4.07,4.1-4.45,2.41-.32,2.25-1.89,1.32-3.91-3.89-8.39-4.83-18.63-14.93-23.09-.8-.36-1-2-1.53-3l-.05,0c2.69.12,5,3.57,8.09.92a5.06,5.06,0,0,0-.71-1.67c-2.56-2.49-6.13-5.86-4.84-8.74,1.78-4,5.52.66,8.56.44,3.93-.28,7.85.33,11.24,2.88.81-2.52.43-4.5-.82-4.82A171.58,171.58,0,0,1,48.74,317c-1.06-.43-3.06.69-3.79-.95-.94-2.08.63-2.71,2.28-3.8,4.86-3.23,7-7.66,2.92-13.82,2.83.52,4.56.77,6.25,1.17s3.38,1,5.1,1.44c1.46.33,3.1.4,3.77-1.29a3.35,3.35,0,0,0-1.95-4.4c-1.53-.69-3.4-.63-5.12-.92-7.14-1.25-8.59-4-3.79-9,3.51-3.63,3.92-4.69-.25-8.5a20.84,20.84,0,0,1-5.62-9.66c-1.9-8.58,6.43-15.74,2.82-24.37-.15-.36,1-1.32,1.56-1.92,6.85-6.79,10.87-14.8,9.21-24.59-1.17-6.94,1.7-9.93,8.16-10.37,3.22-.22,6.6-1.35,7.07-4.34a206.66,206.66,0,0,0,2.7-26.6c.24-8.68-2-18,1.87-25.79,3.38-6.74,3.27-12.38.81-18.72-1.29-3.32-2-7.29,2.19-7.92,3.88-.59,9.21-5.82,12.2,1.35,1.87,4.48,5.13,5.41,8.26,2.7s7.34-6.51,2.29-11.06c-4.8-4.33-7.84-10-12.83-14.44-3.56-3.14-10.06-8.39-3.29-17,3.6-4.59,4.83-11.82,10.11-16.24.66-.55.89-3,.52-3.18C96.8,61.49,99,54.19,94.45,50.54c-3.61-2.92-5.19-6.94-3.37-11A8.67,8.67,0,0,1,102.41,35c6.63,3.06,14.9-4.92,20.59,3.79,1,1.45,3.62-2.07,4.28-4.28.83-2.8.9-5.88,2-8.54s4.08-6.64,6.27-4.29c4.06,4.34,7.23,5.83,12.39,2.45,1.23-.8,2.74.8,3.16,2.35,1.24,4.63,3.46,4.58,7.06,2.1,4-2.77,6.85-.46,8.23,3.36,2.45,6.71,11.63,11.33,6.7,20.25-.78,1.42-3.52,2.21-5.45,2.41s-4-.86-6-1c-3.88-.29-12.28,7.4-12,11.34.56,7,5.69,5.6,9.88,4.37,3.54-1,5.17,1,6.45,3.18,1.93,3.23,4.24,5.57,8,6.28-.18,3.21,4,6.4,0,9.62-2.32-.2-4.89.16-6.16-2.51-3-6.27-8.56-5.53-12.78-3.16-4.51,2.52-7.93,1.92-11.38-.62-4.85-3.56-9.38-3.26-13.73.4s-6.5,8.84-5.47,14.21c1,5,5.16,7.58,10.51,7.81a10.37,10.37,0,0,1,4.19,1.28c2.89,1.52,6.17,3.25,5.84,7-.34,4-4,3.54-6.89,3.93-10.9,1.46-20.7,4.94-27.15,14.7-1.43,2.17-4,3.85-2.6,6.94,1.37,2.9,4.16,1.46,6.33,1.66,2.94.27,6.42-.23,6.86,3.85.52,4.83,3.21,3.83,6.76,4,5.47.22,11.7,1.63,13,8.26,1.25,6.46-2.44,10.33-8.72,12.32-5.77,1.83-13.14,2.15-13,11.26,0,1.68-2.4,2.25-4.28,2.42-5.4.46-4.65,3.28-3.54,7.43,3.58,13.37,13,22.31,22.24,31.61,4,4,2.86,9.69-2.6,11-7.77,1.82-11.09,5.9-11.88,13.9-.58,6-2.69,13.4-11.56,10.63s-10.64.53-8.86,8.34Zm-32.88,42c-2.29-.38-4.26.33-5.05,2.44-1,2.8,1.77,3.83,3.33,4,3.56.47,6.8,3.18,11.3,1.81C68.24,310.62,65.81,307.34,61.09,306.54Zm2-20.21c2.73-1.33,6.66-1.54,7.44-5.19.46-2.11-.84-3.65-3.68-3.43-4.06.31-4.68,3.6-6.14,5.85C60.55,285.66,61.35,287.15,63.05,286.33Zm42-60.9c-.68,3.27-5.94,4.7-3.71,9a2.33,2.33,0,0,0,3.73.65c3.51-3,3.34-6.82,2.26-11.46C106.19,224.49,105.16,224.87,105.05,225.43Z" transform="translate(272.12 726.13)"/><path class="cls-4" d="M-146.51,109.83c1.36-3.84-2.19-5.83-3.4-8.66-2.16-5-6.65-7.45-11.56-5.36s-4.34,7.15-3.13,11.63c.53,2,.82,4.45,2.15,5.69,9.38,8.73,9.47,22.38,17.33,32,3.82,4.67-1.82,8-3.68,11.61-1.72,3.34-6.13,6.41-8.69,4.09-6.18-5.58-17.17-3.84-20.25-14-1-3.4-4.16-6.54-8.24-4.36-4.37,2.33-3.59,7-1.49,10.12a61.07,61.07,0,0,0,8.91,10.84c4.72,4.41,10,10.73,7,17-4.66,9.59-6.95,19.9-10.7,29.69-2.87,7.48-10,12.33-10.84,20.53l-.54.52c-5.33-1.71-9.86-.26-10.47,5.39-.42,3.93-.78,10,6.61,9.5l5.75,5.64c1.79,6.17,6.72,9.44,12.28,10.35,4.51.73,8.33-4.18,9.83-7.24,1.89-3.87,2.77-9.84-2.42-13.59-2.46-1.77-3.11-4,.19-5.2a6,6,0,0,0,3.58-7.2c-3-6.38,1-13.14-1.85-19.4-1-2.23-1.5-5.58,1.41-7.11s7.79-4.25,9.8-1.25c5.61,8.38,12.71,5.81,20,4.42l3.87,2.16c3.89,3.9,12.07-1.53,13.27,3.58,1.71,7.31,7.76,11.55,9.75,19.09,2,7.69-1.36,9.8-4.69,13.54-3.82,4.28-7.68,7.42-14.55,5.3-3.71-1.14-9.22-3.6-12.78,1.72-6.77,1.94-3.48,10.95-9.44,13.46-8.14,2-10.05,4.43-10.8,13.18-.23,2.57-2.07,4.93-1.32,7.71-.21,1.69-1.48,2.22-2.86,2.64-12.39-2.35-24.48-3-35.68,4.6a11.85,11.85,0,0,0-4.59,5c-3.35,7.17-8.25,8.17-14.11,2.9-1.73-1.56-4.27-3.54-4.34-5.41-.37-9.15-12.17-13.27-9.85-23.72.66-3-3.58-4.43-6.43-5.08-4-.92-8.15-1.23-12.21-1.92-5.68-1-8.21-4.08-6.88-10,1.56-6.94,2.58-14-.35-20.79-2-4.6,1.83-5.83,4-7.5,4.3-3.23,6.46-5.45,4.49-12.13a17,17,0,0,1,6.3-18,112.59,112.59,0,0,0,15.66-13c1.8-1.83,3.68-4.68,6.64-3.37s5.57,4.35,5.27,7.58c-1.07,11.76,5.17,14.22,15.17,13.46a16.52,16.52,0,0,1,10.64,3.4c5.49,3.89,9.62,1.44,10.1-4.39s7.34-9.48,5-15.51c-3.36-8.74-8.55,3.68-13.45-.8-2.21-2-7.37-1-11.19-1-10.69,0-17.27-4-20.73-13.9a13.52,13.52,0,0,1,1.47-11.85c8.05-13.21,16.15-26.23,22-40.87,2.28-5.68,8.1-15.34,17.86-16.76,8-1.18,8.81-8.8,12.14-14a23.56,23.56,0,0,0,3.48-10c.8-7.55,6.11-4.58,10.28-5.54,5.78-1.32-2.12-9,4.6-11.47,11.42-4.22,20.38-.58,24,10.89,1.15,3.62,4.17,5.54,6.52,8.14,4.14,4.6,5.17-.71,7.53-1.94,1-.51,3-1,3.24-.66,4.29,6.47,10.36.1,15.6,2.18,3.74,1.48,6-4.38,9.12-6.67l7.33-.65c.32.76.74,1.16,1.48.4l3.43,3.33c-.17,5.25.14,10.49-2.73,15.41-1,1.77-1.3,5.43-.18,6.75,6.52,7.69,4.78,18,9.11,26.38,3.47,6.67.6,11.27-5.69,14.2-11.06,5.15-24.4-.22-29.11-12-3.06-7.69-10.78-9.36-16.63-13.23-3.89-2.58-6.75,2.43-9.75,4.35-4.24,2.73-7.5,2.69-10.82-1.15-1.39-1.61-2.1-4.61-5.36-3.28Zm-40.29,64.84c3,.11,3.57-2.56,3.55-5,0-2.67-1.33-4.67-4.13-4.74s-4.2,1.7-4.36,4.64C-191.21,172.2-189.73,174.57-186.8,174.67Z" transform="translate(272.12 726.13)"/><path class="cls-4" d="M-5.34,67.22c-6.35,7.83-1.57,12.22,3.13,19.29,4.28,6.43,14.12,14.3,6.7,25.06a4.19,4.19,0,0,0-.12,3.34c2.3,5.89-.84,7.84-5.84,7.5-7.6-.52-8.7,4.67-9.46,10.09-.35,2.48-.79,5.88,3.89,4.56.69-.19,1.56.29,2.35.46-3.07,9.45,5.52,9.69,10.23,13,.44.31,1,1.24.91,1.42-6.21,8.48,4,15.76,1.73,23.92-.44,1.64-3,2.23-2,4.48C17,182.19,24.34,177,25.26,165.74c.31-3.78,1.15-5.68,4.48-7.33C39.68,153.52,42.27,142,50,135.05c2.66-2.4.54-4.07-2.45-4.41C44,130.23,39,132.07,37.86,127A17.69,17.69,0,0,1,41,112.72c3.47-4.48,4.16-9.17,5.46-14.35,2.3-9.15,10.48-14.19,18.66-18,5.11-2.4,10.37-4.28,13.63-9.17,2.24-3.35,2.26-7.3-.87-9.64-3.54-2.64-3.68,2.34-5.49,3.69s-3.19,4.1-5.88,2.85c-2.24-1-2.91-3.58-3.12-6-.29-3.42,1.1-6.34,2.67-9.22,2.27-4.16,4.64-8.26,4.34-13.28C70.06,33.31,73.8,29.88,79,27.5l1.51-2.77c.18-6.58-2.9-10.4-9.41-11.85-3.39-.75-6.92-1.57-9.51-4.41-2-2.23-4.46-2.7-7.1-.78-3.18,2.31-6.19,3.82-8.51-1.2-1-2.24-3.08-2-3.93.1-3.74,9.12-12.95,10.15-20.6,14-3.43-4-.35-6.72,2.29-9.45C26.91,7.8,29.05,3.85,24.82.45c-4-3.22-8.44-1.8-11.64,2.22A28.62,28.62,0,0,0,9.94,7.89c-2.1,4.22-5.07,4.47-8.74,2.21C-11.39,2.37-24.73,2.79-38.33,6.54c-3.52,1-13.93,16.63-13.2,20,.69,3.19,3.8,4.3,6.2,6,4.71,3.25,7.76,7.82,7,13.45S-42.83,55.13-48.51,57c-4.54,1.5-10.41,2.64-8.35,10,2.24,8,8.44,13.06,15.3,11.31C-32.48,76-22.85,75.09-15,69.05c2.65-2,6-2.49,9.32-2.19,1-7.88-6.14-15-2.17-23.15,2-4.16,2.17-8.28,1.33-12.88C-7.72,24.16-4.35,21.45,2.2,23c8.52,2,10.39,5.38,7.62,13.86-3.75,11.48.79,18.1,12.55,18.26a49.43,49.43,0,0,1,5.31.1c5.39.68,9,3.73,8.82,9.2-.28,6.92-5.92,3.73-9.52,4.06a7.57,7.57,0,0,1-7-3c-1.37-1.74-3.91-3.12-5.39-1.48C8.69,70.45,1.38,66.66-5.34,67.22Z" transform="translate(272.12 726.13)"/><path class="cls-4" d="M-152.19,496.91c-3.21,3.77-5.5,8.89-12.19,4.19-3-2.09-5.66,2.07-8.33,3.73-1.28.8-2.83,1.25-4.09.08-1.5-1.4-.29-2.65.59-3.79,1.7-2.2,5.28-4.64.7-6.85-3.08-1.49-7.41-1.92-9.73,1.47-2,2.91-1.51,8-7.26,6.59-6.45-1.58,1-7-2.69-9.39-8.52,5.07-10.88,3.65-11.29-6.76a24.15,24.15,0,0,0-1-6.91c-5-14.15-4.58-15.4,7.93-22.27q6.15-3.37,12.37-6.63c16.35-8.55,17.29-20.66,2.45-31.77-6.51-4.87-9.69-11.08-7.66-19.34,6.57-1.07,10.48-4.47,14.47-10.38,4.88-7.25,13.45-11.59,23.13-11.7,4.05,0,6.71-.87,4.77-6.27-1.83-5.08.67-9,5.68-11.17,4.67-1.31,8.16-.72,10.37,4.49,1.05,2.49,3.75,5.75,6,6,11.66,1.34,10,11.2,12.74,18.34,3.27,8.32-1,18.54,8.13,25.81-5.35.31-7.86-2.11-10.69-4.16-7-5.07-12.9-4.89-17,.18-8.1,1.82-11,7.34-10.86,15.11.49,7.35,3.08,13.23,9.87,17.26,6.16,3.65,10.8,8.94,11.15,16.7.13,3.06.43,7-4.52,3.64s-8.46-1.44-10.83,3.11c-1.78,3.4-4.54,5.18-7.7,6.94-5.88,3.28-8.06,13.33-4.62,20.22C-152.22,494.57-152.21,495.74-152.19,496.91ZM-160,442.45c-.2-4-3.22-6.54-6.56-7.45-2.92-.79-5.16,2.25-5.4,4.73-.52,5.24,5.45,3.22,6.72,5.86C-162.25,445.5-159.86,445.1-160,442.45Z" transform="translate(272.12 726.13)"/><path class="cls-4" d="M275.25,270c-3.71-.65-8.66-2.42-10.36,1.69-3,7.17-10.56,10.17-13.57,17.16-1.74,4-6.25,6.14-9.15,1.79-8.16-12.26-19.88-10.7-31.64-9.18-4.1.53-7.24.43-7.88-4.34-.47-3.52-2.63-5-5.44-3.78-3.91,1.72-.23,3.69.53,5.51,1.1,2.63,1.6,5.59-1.13,7.13-3.67,2.07-4.72-2.26-5.54-3.94-2.56-5.29-5-10.88-6-16.62-.94-5.26.38-11-7.7-5.14-2,1.44-3.08-1.87-4.42-3.32-1.64-1.77.75-5.82-3.7-6.09-2.49,4.21,1.59,7.95.86,12-.35,1.89.44,4.71-3,4-2.15-.43-3.89-1.82-2.63-4.48,2.26-4.78,0-8.48-2.62-12.22-3.29-4.77-4.25-10.16-4.73-15.89-.6-7.06,1.09-15-6.71-19.94-2.65-1.68-1.1-3.73,1.58-3.89a33.9,33.9,0,0,1,7.91.57c6.69,1.21,12.68,1.17,16.88-5.62,1.29-2.08,4-4.25,6.25-4.59,8-1.21,7.41-6.82,6.08-11.93a32.49,32.49,0,0,1-.81-11.32,3.39,3.39,0,0,1,2.72-3.11,2,2,0,0,1,2.42,2c.75,6.12,6.45,7.77,9.84,11.52a75.8,75.8,0,0,1,11.47,16.93c2.21,4.4-4.3,4.75-5.58,7.87a4.48,4.48,0,0,0-.38,2.5c2.22,9.56,5.38,18.71,11.51,27.21,1.67-2.51.33-4,.18-5.66-.25-2.62-4.06-6.25-.14-7.66,4.41-1.6,4.77,2.9,5.21,6.14.24,1.73.19,3.85,2.75,3.57,2-.22,1.46-2.15,1.92-3.47,3.33-9.48,10.51-14.07,15.64-9.87,7.53,6.18,15.92,11.86,19.74,21.25,3,7.27,12.33,11.41,10.17,21.06C275.62,268.48,275.44,269.22,275.25,270Zm-72.56-7.61c1.19-4.15-.5-9.49-2.05-13.92-.95-2.73-4.43-2.34-7-1.33-1.6.61-3.89,1.13-4.44,2.34-1,2.32,1.67,4.28,3,4.65,10.34,2.87,5,5.7.23,8.76-.29.18-.14,1.06-.27,2.36C196,264.58,201.72,265.7,202.69,262.35Z" transform="translate(272.12 726.13)"/><path class="cls-3" d="M-170.27,290.28l-11.2,3.24c-1.57-5.39-5.34-4.11-9.19-3.2-5.14,1.22-9.88,2.95-10.76,8.93-.46,3.17-1,7,.22,9.65,5.33,11.29,1.35,23.45,3.86,34.73,2.2,9.85-6.94,17.66-2.59,27.75a56.81,56.81,0,0,1,4.39,27.75l-.1.08c-8.78,3.56-20.05,3.79-21.72,16.79-.26,2.07-1.73,4.54-4.81,4.34.71-3.13,1.59-6.23,2.09-9.39,1-6.46,3.86-10.37,11-11.77,10.31-2,11.49-4.81,8.95-15-1-4-1.81-8.09-3.15-12-1.21-3.52-2.3-7.85-7.72-3.73-2.21,1.68-4.51-.07-6.13-2-1-1.15-1.82-2.55-.59-3.94,1.42-1.61,3.48-2.77,5.52-2.16,8.81,2.62,9.51-3.53,9.67-9.26.13-4.65-1.12-9.33-1.64-14-.5-4.5-3.1-5.86-7.33-5.63-14.24.77-27.85-2.79-41.49-6.2-3.7-.93-7.66-1.38-10.4,2.56a23.17,23.17,0,0,0-4.36,15.83c.39,3.39,3.1.93,4.26-.65,1.72-2.33,2.8-5.51,6.39-5.27a2.88,2.88,0,0,1,2.53,3.18c-.47,3.43-.54,7.55-4.45,8.93-9.69,3.42-8.17,6.11-2.58,14.05,6.9,9.82,13.4,21.13,14.34,34.08.17,2.31-.46,5.42,2.25,6.23,9.33,2.77,13.47,11.87,21.05,16.71-3.9,4.65-6.83.85-9.58-1.36-3.67-3-6.62-6.91-10.51-9.49-6.14-4.08-9.66-9.19-10.23-16.63-.71-9.39-4.54-17.88-10-25.24-9.49-12.67-10.57-28.5-1.84-41.47,3-4.47,7.09-8.27,12.56-5.41,9.61,5,20.28,3.24,30.27,5.69,4.83,1.19,11.3,2.11,12.66-5.64,1.19-6.8-.58-11.41-8.11-14.38a30.16,30.16,0,0,1-18.92-22.88c-2.88-14.52-2.63-14.63-17.93-16.71-12.13-1.65-16.08-5-15.74-17.06.27-9.46,2.22-19.16,8.6-26.88a17.19,17.19,0,0,0,4.25-10.34c.75-11.1,4.46-19.82,14.87-26.39,7.78-4.91,16.76-11.28,13.58-24-.89-3.57,2.08-7.62,4.47-11.21,6.51-9.75,15.65-18.43,17.4-30.48,1.65-11.46,10.62-18.47,17.89-22.53,11.28-6.29,14.64-15.83,18-25.74,4.82-14.1,16.94-22.28,31.77-20.06,7.34,1.1,13.11,3,14.49,11.52.62,3.8,3.81,7.15,7.48,6.25C-108,68-97.41,76-87.12,69.8c-3.13,2.29-5.38,8.15-9.12,6.67-5.24-2.08-11.31,4.29-15.6-2.18-.24-.36-2.26.15-3.24.66-2.36,1.23-3.39,6.54-7.53,1.94-2.35-2.6-5.37-4.52-6.52-8.14-3.65-11.47-12.61-15.11-24-10.89-6.72,2.49,1.18,10.15-4.6,11.47-4.17,1-9.48-2-10.28,5.54a23.56,23.56,0,0,1-3.48,10c-3.33,5.19-4.09,12.81-12.14,14-9.76,1.42-15.58,11.08-17.86,16.76-5.88,14.64-14,27.66-22,40.87A13.52,13.52,0,0,0-225,168.33c3.46,9.86,10,13.89,20.73,13.9,3.82,0,9-1,11.19,1,4.9,4.48,10.09-7.94,13.45.8,2.32,6-4.54,9.69-5,15.51s-4.61,8.28-10.1,4.39a16.52,16.52,0,0,0-10.64-3.4c-10,.76-16.24-1.7-15.17-13.46.3-3.23-2.26-6.24-5.27-7.58s-4.84,1.54-6.64,3.37a112.59,112.59,0,0,1-15.66,13,17,17,0,0,0-6.3,18c2,6.68-.19,8.9-4.49,12.13-2.21,1.67-6,2.9-4,7.5,2.93,6.77,1.91,13.85.35,20.79-1.33,5.91,1.2,9,6.88,10,4.06.69,8.2,1,12.21,1.92,2.85.65,7.09,2.13,6.43,5.08-2.32,10.45,9.48,14.57,9.85,23.72.07,1.87,2.61,3.85,4.34,5.41,5.86,5.27,10.76,4.27,14.11-2.9a11.85,11.85,0,0,1,4.59-5c11.2-7.64,23.29-6.95,35.68-4.6Zm-42.31-102.62c-2,.29-3.4,1.8-2.9,3.65,2.18,8,9.65,2.42,14.11,5.16,2.14,1.31,4.72-.2,4.55-3.36-.25-5-3.63-6.14-7.91-6-.58,0-1.17,0-1.75,0C-208.52,187.31-210.57,187.36-212.58,187.66Z" transform="translate(272.12 726.13)"/><path class="cls-4" d="M-133.64,540.6l3.62,3.92c5.38.61,7.44,5.73,9.55,9.06,4.44,7,12.33,12.24,12.4,21.73a3.1,3.1,0,0,0,1.08,1c11.78-4,11.88-3.93,12,5.27a3.56,3.56,0,0,0,1.06,1.28c2.1-1.32,5.45-.77,6.33-3.82,1.33-4.62,3.57-4.29,6.91-1.91,1.8,1.28,4.12,1.82,6.21,2.7l5-1.8c-.33-1.4.37-2.45,1.63-2.33a3.37,3.37,0,0,1,3.33,4.09c11.22.42,22.66,1.64,31-8.45-2.75-4.12-3.52-9.15-8.47-12.34-4.06-2.61-3.34-8,.21-11.48,2.63-2.59,4.52-3.67,2-8.28-3.08-5.68,0-8.36,6.3-5.54l4.81-.56c0-1.24.24-2.48,1.81-2.34,2.07.18,5,2.58,5.64-1.08.41-2.58-.27-5.86-3.47-7.38-12.4-5.91-25.24-8.76-38.94-5.68l-.34.39c-5.42,12.3-9.72,13.31-19.79,5.08-2.32-1.89-4.79-4.77-8.58-2.95-9.31,4.48-12,3.63-17.57-6-3.38,7.78-9.32,12-17.1,14C-133.92,529.1-136,533.81-133.64,540.6Z" transform="translate(272.12 726.13)"/><path class="cls-3" d="M-63.51,516.68c13.7-3.08,26.54-.23,38.94,5.68,3.2,1.52,3.88,4.8,3.47,7.38-.59,3.66-3.57,1.26-5.64,1.08-1.57-.14-1.79,1.1-1.81,2.34,3.34,6.44,10.09,4.8,15.42,6.52,2.79.89,7.05-2.41,8.15.29,1.69,4.13,2.71,9.58,1.42,13.64-1.76,5.53-3,10.37-1.49,16.22,1.15,4.35-3.23,6.59-6.17,8.9-13.17,10.34-11.57,17,3,25.1,15.91,8.86,30.1,5.15,44.65-1.72,8.42-4,10.11-10.27,3.44-16.8-7.25-7.12-4.61-17.37-9.88-25-2-2.86,1.7-4.29,4.79-3.06,1.86.75,3.48,3.41,5.45,2.37,13.13-6.88,9.61,3.6,9.89,9.54.33,6.78-.09,13.59,0,20.39.18,10.44,4.39,15.6,14.41,18,12.85,3.09,37.29-6.68,44.46-17.66,3.64-5.56,1.65-10.15-2.28-14.34-2.48-2.64-4.22-5.19-1-8.32s5.82-8.18,11.51-6.8c4.52,1.1,3.88,5.36,4,8.82.7,17.79,15.15,24.61,31.71,17.2,9.29-4.16,15-10.43,20.77-17.78,4.19-5.32,4.91-10.55,1.4-16.31-3.19-5.23-2.41-8.2,4.32-8.63,7.19-.45,8.8-5.71,9.29-11.69-5,10.56-13.32,9.54-22.32,6.41-1.33-.47-2.93-.21-4.41-.19s-3.23.23-3.3,2.09,1.61,2,3.1,2.35c8.79,2.21,14.13,16.5,9,23.91-12.07,17.41-22.6,21-39.76,14.67-4.34-1.6-5.43-3.7-5.25-7.65a48.3,48.3,0,0,0-.1-8c-1.58-12.66-7.41-15-17.65-7.17-2.34,1.79-4.31,4.11-6.76,5.68-5.64,3.6-5.21,7.84-.78,11.48,7.38,6,5.89,9.8-.11,16.92-11.81,14-33.68,9.8-42.15-1.69a11.41,11.41,0,0,1-1.86-9.23c1.53-9.07,1.24-18.22,1.71-27.34.36-7.09-3.26-10.19-9.32-6.3-4.5,2.9-6.64,2.23-9.31-1.47-1.77-2.45-3.29-3.21-6.32-.72a9,9,0,0,1-10,1.07c-1.44-.77-3.17-2.4-4.78-.79a4.58,4.58,0,0,0-.29,5.81c9.13,11,9.87,25.71,17.29,37.35,2.45,3.85,2.91,6.69-2.73,5.34-3.86-.92-5.67.89-7.39,3.18-2.52,3.34-4.75,6.41-9.14,2.52-.91-.81-2.31-1.55-3.16-.53-8.51,10.16-15.51-.61-22.84-2.15-5.58-1.17-7.19-6.79-2.59-11.88,2.16-2.39,4.39-4.87,7.67-5.85,3.68-1.1,6.31-4.59,4.94-7.26C-6,560.68,4.86,556.12,9.51,548.88c.57-.89,2.19-1.07,1.81-2.65-12.4-4.59-13.24-9.38-3.28-19,2.87-2.78,4.6-6,4.11-10.09-7.19,1.74-13.32-3.92-20.6-2.8-3.18.49-9.24,5.48-9.59-1.57-.23-4.57-4.22-6.8-3.79-10.81.29-2.8,2.16-6.3-1-7.9-2.87-1.47-4.7,2.88-7.61,3.25-.56,8.27-5.86,11.84-14.83,9.86-3-.67-6.42-3.24-8.78.33-3.39,5.11-3.64.72-5.47-1.11-3.11-3.11-4.15-11.39-11.6-5.49C-64.82,504.35-61.61,509.3-63.51,516.68Z" transform="translate(272.12 726.13)"/><path class="cls-4" d="M178.93,116.84c.91,8.79,2.18,17.09-6.07,24.24-6.09,5.29-4.6,9.49,2.73,13.34,2.48,1.3,3.06,3.17,3.42,5.66,1,7.34,5.14,9,11.75,4.54,4.11-2.8,7.75-6.25,12.19-8.71,3.18-1.76,6.28-2.6,9.08-.36,4.49,3.61,9.7,3.72,14.94,4.13l5.57-1.26c.08-1,.53-1.5,1.57-1.32,4.12-6.49,12.56-4.59,17.68-9.14.25-2.24,1.93-2.59,3.74-3,10.74-2.47,13.26-9.2,7.21-18.13-2.35-3.47-6.1-6.82-3.57-12a4.15,4.15,0,0,0-1.83-5.43c-7.56-4.33-15.25-8.45-23-12.39-1.73-.88-3,1.27-4.42,2-7.91,4-18.55-1.16-25.39,7.3-.09.11-2.75-1.86-4.22-2.85-4.47,4.65-9.53,6.67-15.75,3.55l-5.27,4.28Z" transform="translate(272.12 726.13)"/><path class="cls-4" d="M-222.17,420.34c.71-3.13,1.59-6.23,2.09-9.39,1-6.46,3.86-10.37,11-11.77,10.31-2,11.49-4.81,8.95-15-1-4-1.81-8.09-3.15-12-1.21-3.52-2.3-7.85-7.72-3.73-2.21,1.68-4.51-.07-6.13-2-1-1.15-1.82-2.55-.59-3.94,1.42-1.61,3.48-2.77,5.52-2.16,8.81,2.62,9.51-3.53,9.67-9.26.13-4.65-1.12-9.33-1.64-14-.5-4.5-3.1-5.86-7.33-5.63-14.24.77-27.85-2.79-41.49-6.2-3.7-.93-7.66-1.38-10.4,2.56a23.17,23.17,0,0,0-4.36,15.83c.39,3.39,3.1.93,4.26-.65,1.72-2.33,2.8-5.51,6.39-5.27a2.88,2.88,0,0,1,2.53,3.18c-.47,3.43-.54,7.55-4.45,8.93-9.69,3.42-8.17,6.11-2.58,14.05,6.9,9.82,13.4,21.13,14.34,34.08.17,2.31-.46,5.42,2.25,6.23,9.33,2.77,13.47,11.87,21.05,16.71Z" transform="translate(272.12 726.13)"/><path class="cls-4" d="M-71.07,500.86c7.45-5.9,8.49,2.38,11.6,5.49,1.83,1.83,2.08,6.22,5.47,1.11,2.36-3.57,5.76-1,8.78-.33,9,2,14.27-1.59,14.83-9.86-2.25-1.36-1.3-3.79-1.91-5.7-7.12-2.61-10.86-13.16-5.9-18.33,3.61-3.77,4.75-12.37,14.3-7.35,3.26,1.71,10.9-.95,14-4.1a11.76,11.76,0,0,0,1.16-14c-1.58-2.61-1.92-6-3.18-10.19-4.57,7.55-9.51,11-16.33,3.46-1.95-2.15-3.64-.6-4,2.12-.92,7.44-4.19,6.44-9.35,3.26-4.41-2.71-9.7-4-14.6-5.89l-2.5.4-21.68,28.77c.08,6-4.39,6.29-8.64,6.85-4.09,4.06-8.45,8-6,14.75,1.09,1.3,2.19,2.6,3.28,3.91,4-.16,8.4-2,11.22,2.69l2.44,1.17c1.34-.78,2.41-.63,3,.95Z" transform="translate(272.12 726.13)"/><path class="cls-4" d="M244.75,186c-1.16,3.87-4.74,4.33-7.73,4.75-6.76,1-7.05,5.5-6.13,10.42,1.88,10.1,10,15,20.19,13.26,9.71-1.61,19.54-2.42,29.32-3.59l9-.16c4.58-1.9,9.69-2.76,13.13-6.85,3.08-12.11-4.71-21.84-8.71-31.73-3.21-8-12.74-13.28-21.38-17.14-2.5-1.12-5.25-.21-7.14,2.15-.34,4.55-.4,9.14-1.08,13.64C263,178.56,254,185.29,246,184.62Z" transform="translate(272.12 726.13)"/><path class="cls-4" d="M297.25,219.29c.58,7.45-5.26,8.64-10.15,8.81-8.76.3-11.87,7.62-16.94,12.33-1.79,1.66-2,6.52.73,8,4.79,2.67,6.84,10.23,14.46,8,5-1.43,10.39-2.9,12.89,4.09l5.37,0c1.33-6.08,4.33-3.31,7.62-1.72,6.37,3.09,13.36,8.58,17.88-2.52.11-.27,1.1-.19,1.68-.27l1.8-5.89c.11-.73.23-1.45.34-2.18.2-1,.39-2.06.59-3.09-1.09-1.29-1.08-2.42.49-3.32q-.21-3-.4-6c-2.19-1.06-6.76-1.26-1.79-4.93-2.53-11.26-14.47-22.18-26.5-24.22-1.72,3.13-3.55,6.18-6.86,7.94Z" transform="translate(272.12 726.13)"/><path class="cls-3" d="M325.7,347.49c-3.25,3.32-6.53,5.51-11.77,6-6.92.61-11.61,8.48-19.75,7.46-1.33-.17-1.87,2.88-1.12,4.59,1,2.36,3.22,2.2,5.33,1.75,10.27-2.23,12.52.07,13.06,10.87a61.42,61.42,0,0,1-8.2,34.81c-3.2,5.59-3.1,13.09-2.88,19.92.11,3.64.26,7.08-4.4,8.38-2,.56-3.92,2.42-3.88,4.49.24,11.5-10.27,12.89-16.91,16.83-5.9,3.49-9.09-2.92-11.07-7.94-1.49-3.77-2.68-7.47-8-5.84-1.11.35-12.26,20.45-11.92,21.58.6,2,.83,4.34,2.1,5.77,2.78,3.12,5.86,5.7,4.1,10.65-2.21,6.25-2.12,13.5-9.05,17.45-2.38,1.36-4.54,2.84-7.32,2.46-6.37-.87-9.91,2.32-11.91,7.93,5.58-1.69,11.4-2.83,16.68-5.17,12.57-5.58,18.22-21.43,12-34-3-6.2,1.69-8.39,4.53-11.84,4.06-4.95,5.69-.11,8.14,1.85,2.62,2.12,5.94,4,9,2.46,9.15-4.65,17.78-9,24.47-18.34,6.41-8.93,6.29-17.88,7.29-27.14.91-8.44,6.42-14.77,8.91-22.56,3.83-12,1.64-22.73-1.45-33.48-2-7.05-1.33-10.05,6-10.64C322.79,355.32,326.15,353.22,325.7,347.49Z" transform="translate(272.12 726.13)"/><path class="cls-3" d="M-152.19,496.91c-3.21,3.77-5.5,8.89-12.19,4.19-3-2.09-5.66,2.07-8.33,3.73-1.28.8-2.83,1.25-4.09.08-1.5-1.4-.29-2.65.59-3.79,1.7-2.2,5.28-4.64.7-6.85-3.08-1.49-7.41-1.92-9.73,1.47-2,2.91-1.51,8-7.26,6.59-6.45-1.58,1-7-2.69-9.39-8.52,5.07-10.88,3.65-11.29-6.76a24.15,24.15,0,0,0-1-6.91c-5-14.15-4.58-15.4,7.93-22.27q6.15-3.37,12.37-6.63c16.35-8.55,17.29-20.66,2.45-31.77-6.51-4.87-9.69-11.08-7.66-19.34l-3.16-.13-.1.08c-2.91,5.59-2.72,10.66,2.13,15.26,5.74,5.46,5.71,14.66,12.82,19.5,3,2.07.36,4.66-1.46,6.65-5.72,6.26-13,10.16-20.63,13.42-14.36,6.1-15.69,9-10.75,23.65,2.9,8.62,1.38,18.68,10.84,25.07,10.26,6.94,20.49,10.25,32.33,5.68,3.17-1.22,6.26-1.35,9.51-1.56C-154.78,506.48-150.91,503.85-152.19,496.91Z" transform="translate(272.12 726.13)"/><path class="cls-3" d="M-133.64,540.6c-2.38-6.79-.28-11.5,6.75-13.36,7.78-2.06,13.72-6.25,17.1-14,5.53,9.62,8.26,10.47,17.57,6,3.79-1.82,6.26,1.06,8.58,2.95,10.07,8.23,14.37,7.22,19.79-5.08-2.94-1.18-4.25,1.32-6,2.73-2.59,2.09-6,3.06-8.13.87-7-7.09-17.52-8.23-24.5-15.54-3.62-3.79-10.37-3.67-13.93-8.52-.93-1.27-2.79-.8-4,.29-1.51,1.4-1.46,3.05-.45,4.8,7.63,13.26,7.59,13.34-6.52,19.21-8.29,3.44-12.37,11.59-9.06,18.18C-135.88,540.14-135.09,541.07-133.64,540.6Z" transform="translate(272.12 726.13)"/><path class="cls-3" d="M200.3,103.5c1.47,1,4.13,3,4.22,2.85,6.84-8.46,17.48-3.28,25.39-7.3,1.47-.74,2.69-2.89,4.42-2,7.76,3.94,15.45,8.06,23,12.39a4.15,4.15,0,0,1,1.83,5.43c-2.53,5.15,1.22,8.5,3.57,12,6.05,8.93,3.53,15.66-7.21,18.13-1.81.41-3.49.76-3.74,3,11,1.39,16.93-2.93,19.18-14.07,2.77-13.67-5.24-28-18.41-33.34-4.07-1.66-7.89-3.93-11.81-6-4.13-2.13-8.22-3.09-12.51-.29-1.2.78-3.12,2-4,1.55C213.66,90.46,208.19,100.75,200.3,103.5Z" transform="translate(272.12 726.13)"/><path class="cls-3" d="M221.74,514.9c-15.23,1.6-16.3.46-14.07-15.89.71-5.25-1.66-8.21-6-10.61-4.6-2.54-8.75-6.65-14.38-2.43-3.48,2.61-7,5.22-10.31,8-6,5-6.23,11-.93,16.63a4,4,0,0,0,3.83,1.37c14.65-1.7,15.3-1.12,15.36,13,5.12-7.4,4.63-12-1.81-16.88-1.4-1.07-3.11-1.87-4.19-3.2-3-3.66-2.46-7.91-.42-11.59,2.2-4,5.61-1.92,8.5-.48,3.55,1.76,8,2.6,6,8.73-1.83,5.7-2.65,12,3.58,15.87C212.25,520.73,217.52,519.93,221.74,514.9Z" transform="translate(272.12 726.13)"/><path class="cls-3" d="M-33.36,533.72c-6.28-2.82-9.38-.14-6.3,5.54,2.5,4.61.61,5.69-2,8.28-3.55,3.49-4.27,8.87-.21,11.48,5,3.19,5.72,8.22,8.47,12.34,3.52-5.48.36-9.4-3.44-12.67-4.19-3.61-5-6.49.52-9.24C-28.44,545.49-35.48,538.74-33.36,533.72Z" transform="translate(272.12 726.13)"/><path class="cls-3" d="M-108.07,575.31c-.07-9.49-8-14.74-12.4-21.73-2.11-3.33-4.17-8.45-9.55-9.06C-125.75,557-117,566.17-108.07,575.31Z" transform="translate(272.12 726.13)"/><path class="cls-3" d="M330.79,256c-.58.08-1.57,0-1.68.27-4.52,11.1-11.51,5.61-17.88,2.52-3.29-1.59-6.29-4.36-7.62,1.72,5.36,1.9,10.65,4,16.09,5.64C326.18,268.13,329.7,264.76,330.79,256Z" transform="translate(272.12 726.13)"/><path class="cls-3" d="M246,184.62c8,.67,17.05-6.06,18.24-13.88.68-4.5.74-9.09,1.08-13.64-3.83.29-5,3.25-4.8,6.13.73,10.06-4.52,15.72-13.11,19.32C246.75,182.83,246.45,183.91,246,184.62Z" transform="translate(272.12 726.13)"/><path class="cls-3" d="M-74.43,579.85c-2.09-.88-4.41-1.42-6.21-2.7-3.34-2.38-5.58-2.71-6.91,1.91-.88,3.05-4.23,2.5-6.33,3.82C-86.85,587.93-80.09,586.87-74.43,579.85Z" transform="translate(272.12 726.13)"/><path class="cls-3" d="M298.46,214.38c3.31-1.76,5.14-4.81,6.86-7.94a2.55,2.55,0,0,0-2.78-2.62c-3.44,4.09-8.55,5-13.13,6.85C291.56,214,295.64,212.66,298.46,214.38Z" transform="translate(272.12 726.13)"/><path class="cls-3" d="M-94.94,581.6c-.17-9.2-.27-9.24-12-5.27C-104.19,580.87-98.21,578.14-94.94,581.6Z" transform="translate(272.12 726.13)"/><path class="cls-3" d="M179.28,111.33l5.27-4.28c.44-3-1.24-4.4-3.9-4.36-2.21,0-3.66,1.81-4.4,3.72C175.19,109.14,176.44,110.82,179.28,111.33Z" transform="translate(272.12 726.13)"/><path class="cls-3" d="M-80.48,498c-2.82-4.73-7.23-2.85-11.22-2.69C-89.29,501.69-84.42,497.9-80.48,498Z" transform="translate(272.12 726.13)"/><path class="cls-3" d="M234.11,157.1c-1-.18-1.49.36-1.57,1.32.37,1.4.66,2.82,1.13,4.19.63,1.85.94,4.63,3.93,3,2.25-1.21,2.24-3.36.52-5.18A40.42,40.42,0,0,0,234.11,157.1Z" transform="translate(272.12 726.13)"/><path class="cls-3" d="M331.82,230.66c-5,3.67-.4,3.87,1.79,4.93A4,4,0,0,0,331.82,230.66Z" transform="translate(272.12 726.13)"/><path class="cls-3" d="M-64.43,579.81a3.37,3.37,0,0,0-3.33-4.09c-1.26-.12-2,.93-1.63,2.33C-68.13,579.74-66.65,580.8-64.43,579.81Z" transform="translate(272.12 726.13)"/><path class="cls-3" d="M-75,500.07c-.61-1.58-1.68-1.73-3-.95a1.55,1.55,0,0,0,1.43,2.33C-76.12,501.48-75.55,500.56-75,500.07Z" transform="translate(272.12 726.13)"/><path class="cls-3" d="M334,241.56c-1.57.9-1.58,2-.49,3.32A2.7,2.7,0,0,0,334,241.56Z" transform="translate(272.12 726.13)"/><path class="cls-3" d="M332.93,248c-.11.73-.23,1.45-.34,2.18C333.6,249.56,333.86,248.86,332.93,248Z" transform="translate(272.12 726.13)"/><path class="cls-3" d="M-79.79,69.15c.32.76.74,1.16,1.48.4Z" transform="translate(272.12 726.13)"/><path class="cls-4" d="M-28.34,395.28c3.11,0,6.16-.95,7.85,3.54s7,4.51,9.82,2.61c3.67-2.45-.5-4.8-2.19-6.87s-3.08-4.33-1.05-7c2.79.16,2.59,3,4,4.3,1.09,1,3.74,1.83,3.71,1-.21-7.45,8.49-8.15,10.21-14,.51-1.73,1.5-3.34-.95-4.35-.8-.33-1.56-.76-2.34-1.15,10.19-7-7-15.72,2.7-22.66-4.62-1-5.87,1.59-6.92,3.89-.87,1.89-1.16,4.62-3.93,3.1a5,5,0,0,1-2.57-6c.53-1.72,3.88-3.1,1.32-5.12-2-1.59-4.6-.82-6.43,1-5.27,5.37-6.66-4.14-10.73-3-2.54,3.73,6.4,7.38.64,9.52-4.15,1.55-6.43-3.71-7.88-7.73a24.59,24.59,0,0,0-3.18-5.16c-.85-1.26-2.1-2.44-3.56-1.32a3.36,3.36,0,0,0-.61,3.16c1.51,3,5.37,7.12,1.19,8.95-3,1.32-8.79.41-12.05-2.93s-5-5.22-6.39,1.51c-1.11,5.39-5.15,5.77-9.25,2.09-4-3.43-9-.83-13.36-2,.11,2-.45,4.43.43,6,3.91,7.18,5.58,12.49-6,12.38-4.65-.05-6.13,4.29-5.75,8.36.41,4.36,1.51,8.44-5.3,7.77-2.06-.2-3.07,1.4-3,3.46,0,1.56.5,2.94,2.14,3.42C-89,394.63-86,402.51-82,409.42c1.91,2.22,4.19,1,6.32.6,4.65-1,4.51,2.12,4.5,5.15l-.13-.11c3-.36,6.65,1.6,8-3.57.72-2.88,3.17-.6,4.82.09,2.61-.58,4.61.51,6.33,2.34,3.43,2.48,6.16-.73,9.24-1.12-.95-2.34.88-3.79,1.79-5.53,2.17-4.17,3.07-7.8-2.9-9.71-2.54-.81-4.81-2.52-3.92-5.84.6-2.26-1.33-5.89,2.56-6.44,2.69-.38,4.15,1.94,4.48,4.43.57,4.42,3.43,5.7,7.3,5.87.16-1,.33-2,.49-3.06-3.27-1.61-3.08-4.58-2.73-7.45a1.74,1.74,0,0,1,2.6-1.33c2.35,1.55,2.32,4.43,3.11,6.82a4.42,4.42,0,0,1-.17,1.7Z" transform="translate(272.12 726.13)"/><path class="cls-4" d="M1.81,223.38c-1.49-5.19-4.3-6.73-9.1-3.48-3.25,2.21-5.26,1.43-6.29-2.61-.39-1.55-.2-4.49-4-4-2.5,7.88.45,15.77.8,23.66-3.28.55-7.21-.75-7.16-2.63.21-7.95-7.4-5-10.48-8.22-1.6-1.66-3,0-3.56,2-2,7.69,6.36,22,14,23.61,7.11,1.52,7.11,1.52,2.06,8.15-2.87-1.4-2.82-6.86-7.92-5.69-.09,4,2,6.1,5,8.47,4.47,3.54,3.27,9,2.41,14-.3,1.75-1.62,4-3.43,3.06a14.52,14.52,0,0,1-7.44-9.37c-1-4.45-3.52-8.11-5.71-12-1.1-1.92-3-1.76-4.62-.86s-1.81,3.06-.74,3.79c8.1,5.51,3.13,18.94,14.42,23,3,1.09,1.08,6.42-.68,9.62-1,1.78-3.68,2.95-4,1.18-1.65-9.62-20.2-9.74-13.34-24,.56-1.16-.88-3.29-1.44-4.95-1.29-3.88-2.34-7.51-.43-11.78,2.35-5.24,2.07-10.45-4.32-14a28.51,28.51,0,0,0,8.23,1.08c3.44-.19,4.7-3,2.6-4.55-8.21-6.18-.26-11.44.76-16.78.87-4.55,3.85-8.13,7.56-.95,1.15,2.25,2.84,5.9,6.74,2.86-2.93-3,9.81-9.58-2.44-10.61-1.84-.16-4.43-1.34-5.16-2.81-4.27-8.51-12.16-7.47-19.1-6.8-7.31.7-6.78-2.53-5.08-7.12,1.23-3.31,3.87-6.34,4.2-9.67.49-4.83-6.5-13.59,6.6-10.08.19.05.95-1.39,1.17-2.21,2.35-8.56,10.6-13.91,12.3-22.94a5.33,5.33,0,0,1,6.84-4.19c3.09,1,6.66,0,8.32,5.55A85.86,85.86,0,0,0,2.8,189c2.52,2.39.68,3.73,0,5.17-4,8-5.5,15.69,1.66,22.91,1.94,2,1,4.42.36,6.7Zm-41.63,20.2a9,9,0,0,0,0-1.37c0-.13-.41-.21-.63-.31l-.59,1.32Z" transform="translate(272.12 726.13)"/><path class="cls-2" d="M-195.54,399.13l3.16.13c6.57-1.07,10.48-4.47,14.47-10.38,4.88-7.25,13.45-11.59,23.13-11.7,4.05,0,6.71-.87,4.77-6.27-1.83-5.08.67-9,5.68-11.17,4.77-7.68-6.21-11-4.88-17.77-2.08,1.09-2.25,3.14-2.61,5.12-1.12,6.18-5,8.53-11,7.92-6.29,1.31-8.33-1.92-8.7-7.62-.19-2.92.68-6.92-3.78-7.79-2.4-.47-4.77-.65-5-3.72-.32-3.69,2.06-5.13,5.15-5.91a7.37,7.37,0,0,0,.49-5.6c-7.35-7.72-8.09-17.86-10-27.56,0-.18.9-.55,1.38-.83l1.89-2.46c-1.57-5.39-5.34-4.11-9.19-3.2-5.14,1.22-9.88,2.95-10.76,8.93-.46,3.17-1,7,.22,9.65,5.33,11.29,1.35,23.45,3.86,34.73,2.2,9.85-6.94,17.66-2.59,27.75A56.81,56.81,0,0,1-195.54,399.13Z" transform="translate(272.12 726.13)"/><path class="cls-4" d="M12.82,318.8c-2,.16-3.46-1.61-3.24-4.32.65-7.93-6.71-3.68-7-3-1.65,3.58-5.79,4.14-7.58,7.16-6.11,10.3-8.65-3-13.9-2.5-2.81.26-1.71-5.35.92-8.27,2.85-3.17,7-6.63.35-10.4-2-1.14-1.37-2.32.15-4,5.6-6.36,1.17-15.74,6.28-22.42a10.8,10.8,0,0,0-2.28-2.41c-6.15-5.19-.08-10.53.54-15.4.58-4.52,6.93-3.27,10.81-2.93,4.2.37,5.69,4.71,8,7.63,1.44,1.86,2.4,5,4.94,4.28,5.2-1.54,7.42,2.13,10.42,4.7,6.34,5.41,11,4.32,15-4.65.54,3.88.79,7.83,3.12,8.63,11.95,4.09-.26,5.82-.7,8.91,3,2,8.66,2.21,6.74,8.21-1.26,3.92-.87,8.46-7,9.73C23.38,300.82,18.9,309.29,24.9,324.8,19.92,322,17.41,318.43,12.82,318.8Zm6-8.12c.26-1.6-1.09-2-2.21-1.93-.75,0-1.94.57-2.13,1.15-.42,1.24.31,2.16,1.72,2.32C17.42,312.3,18.59,312.08,18.81,310.68Z" transform="translate(272.12 726.13)"/><path class="cls-4" d="M-174.72,324.37a7.37,7.37,0,0,1-.49,5.6c6.23,2.27,11.31,6.92,20.43,7.77-6.42,1.78-12-1.57-13.9,3-2.06,4.91.92,9.49,5.36,12.64.36.25.33,1.06.48,1.6,6,.61,9.9-1.74,11-7.92.36-2,.53-4,2.61-5.12,4.38-2.41,7.53-.76,8.33,3.66.75,4.12,3.29,3.36,5.84,3.43a4.53,4.53,0,0,0,4.81-3.14c1.08-3.08-1.39-4.08-3.3-5.43-2.13-1.5-4.2-3.1-6.21-4.58,1.24-3.5,4-2.86,6.12-2.6,3.8.45,7.45,2.81,8-4.38.24-3.44,5.19-4.54,8.21-.85,1.4,1.7,1.52,4.52,4.33,4.73,2.39-1.15,1.53-3.4,1.55-4.76.13-8.35,2.34-14.61,12.24-14.68,1.76,0,2.83-1,2.65-2.73-.28-2.68-2.34-4-4.52-4.95-2.62-1.15-7.1,1-7.36-4.23l.06.05c-5.94-.34-9.21-7.09-16.29-5.89-4.89.83-10.57-2.89-14.43,3.27-.34.56-2.21-.08-2.66-1.44-3.22-3.07-7.61-4.67-11.23-2.86-7.42,3.72-12.11-.28-17.15-4.31l-11.2,3.24-1.88,2.46c8.15,3.28,9.88,9,6.84,17-.75,1.95,1.11,3.66,2.32,5.35C-172.79,320.25-172.26,322.55-174.72,324.37Z" transform="translate(272.12 726.13)"/><path class="cls-2" d="M-37.55,424.12l.1-.12c-3.83-1.16-7.4-2.59-7.33,4.1,0,3-1.46,6.43-5.78,6.57-3.75.12-4.66,3.06-5.6,5.91l-2.5.4c0-2.58.58-5.23-1.49-8.3a29.47,29.47,0,0,1-12.54,9.71c-3.27,1.42-7.13,3.33-6.17,8.39.2,1.05,0,3-1.45,2.6-6.15-1.51-8.63,3.1-8.54,7,.1,4.31,3.56,8.14,8.51,9.39.08,6-4.39,6.29-8.64,6.85-1.78-1.85-.4-9-6.28-3.89-1.84,1.61-2.48,5.41-5.93,3.48a10.38,10.38,0,0,1-5.52-7.57c-1.83-11.2,3.77-18.14,15.78-19.48,2.19-.24,5.24,1.2,6.43-1.44,1.42-3.19-1.92-4.74-3.72-6.27-4.91-4.17-8.23-9-9.06-15.52-.23-1.74-1.12-4,.75-4.8,2.58-1.17,3.65.78,4,3.14.24,2,1,3.44,3.31,3.06a2.11,2.11,0,0,0,1.93-2.49c-1.65-6.38,4.72-9.88,5.35-15.4,1.91,2.22,4.19,1,6.32.6,4.65-1,4.51,2.12,4.5,5.15-1.74.47-6-1.25-3.82,2.94,2.48,4.79,4.48,11.18,12.34,9.83,1.5-7.37-8.79-6.62-8.64-12.88,3-.36,6.64,1.6,8-3.57.72-2.88,3.17-.6,4.82.09-.11,2-.07,4-.37,5.91-.43,2.86,0,6.08,3.2,5.61,3.76-.55.46-3.46.47-5.31,0-2.17,2-2.61,3-3.86,3.42,2.47,6.15-.74,9.23-1.13C-42,417-37.23,419.33-37.55,424.12ZM-78,430.28c1.38,3.07-4.33,4.38-1.82,7.42.47.56,2.53.56,3.25,0,3.35-2.49,1-5.78-.15-9.21C-77.21,429.11-78.19,430-78,430.28Zm27.37-5.11-.06-.49-.48.3Z" transform="translate(272.12 726.13)"/><path class="cls-2" d="M-88.23,342.6a4.09,4.09,0,0,0-3.26-.84c-1.91.49-1.39,2.27-1.15,3.65a8,8,0,0,0,3.43,5.77c4.39,3.09,3.44,5.76-1.64,7.07l.13.12c-.13-1.87-.67-3.75-2.63-4.17-6.64-1.42-5.9-6.13-6.25-11.33-.46-6.73,4.47-10.37,6.53-15.56.57-1.45-1.77-4.53,2.3-3.18,2,.68,3.62,1.78,1.81,4.55-4,6.1,4.08,6.29,5.25,10,.36,1.15,3,2.37,3.36.74.77-4,7.24-7.58,4-10.69-7.18-6.88-2-10.06,2.32-14.27A4.72,4.72,0,0,0-73,309.51c5.58.73,4-7,8.68-7.34-.58,4.23-.75,7.81,4.36,10.09,2.87,1.27,4.93,4.62,7,7.33,1.44,1.89-.14,5.49-1.37,4.49-7.31-6-5.21,5.88-9.59,4.68,1.66,5.15-5,10.35.83,15.86,5,4.7.61,6.82-3.82,8.05-4-3.43-9-.83-13.36-2C-82.91,348-85.46,345.15-88.23,342.6Zm24.8,4.66-10-.92C-68.93,350.48-66.65,351.12-63.43,347.26Zm-28.71-9c.17,0,.82-1.19.69-1.33a8.94,8.94,0,0,0-1.82-1.27l-1,1.76A9,9,0,0,0-92.14,338.24Z" transform="translate(272.12 726.13)"/><path class="cls-2" d="M-140.6,202.09c-.55-3.91-4.7-8.66,3.09-10.32-2.56-3.14-5.39-1.8-7.83-2-4.56-.34-4.23-3.58-3.66-6.44.7-3.46,3.09-2.92,5.36-1.38,1.71,1.16,3.31,2.8,5.38.67,1.91-1.95,1.49-4.34,1.11-6.68-.48-3.06-5.41-5.6-2.59-8.63,4-4.25,5.22-10.36,10.9-13.48,6.56-3.61,5.5-12.13,9.51-17.6.34-.46-.5-2.46-1.27-2.92-2.18-1.28-4,.17-5.44,1.65-7,7-13.74,14.19-18.7,22.81-2.26,3.94-5.06,7.59-8.9,9.69-8.7,4.75-9.31,14.66-14.31,21.74-2.83,4,2.29,5.66,6.08,5.69,4.9.05,9.62-1.41,11.41,6.17,1.06,4.52,6.6-.62,10,.9Z" transform="translate(272.12 726.13)"/><path class="cls-2" d="M-134.72,410.41c-8.1,1.82-11,7.34-10.86,15.11q8.84,6,17.65,12.1c.72.5,1.39,1.73,2,1.67,7.71-.91,16.37-.18,22.79-3.61,4.84-2.59-3.73-13.39-10.53-16C-120.75,417-130.7,420-134.72,410.41Z" transform="translate(272.12 726.13)"/><path class="cls-2" d="M298.46,214.38c-2.82-1.72-6.9-.37-9-3.71l-9,.16c-4.56,5.78-11.2,5.36-17.53,5.91-3.74.32-8.51-.26-10,3.85-1.63,4.41,3.52,6.1,5.5,9.12,6.58,10.11,11.9,4.2,17.09-1,3.71-3.75,7.46-6.79,13.1-5.77,3.73.68,5.51-3.18,8.74-3.63Z" transform="translate(272.12 726.13)"/><path class="cls-2" d="M-170.27,290.28c5,4,9.73,8,17.15,4.31,3.62-1.81,8-.21,11.23,2.86,4.11-3.1,2-7.62,2.56-11.51.42-2.7-.84-6.45,4.17-5.77-.81-1.8-3.84-1.86-3.54-4.53-4,1.19-7.14-.7-8.17-4.08-.87-2.89-1.65-7,2.9-8.59,1.32-3.13,5.84-.51,7-3.9-.89-4-2.93-7.09-7.17-8.2-6.77,1.94-3.48,10.95-9.44,13.46,5,2.42.58,7.77,3.37,10.86,1.5,1.68,6,1.77,3.55,5.49-1.7,2.6-4.21-.91-6.45-.13-1.06.37-2.36.24-2.69,2.33-.81,2.37,6.67,2.36,2.61,6.13-3.39,3.14-5.52.72-7.69-2.23-.81-1.1-3.17-1.07-4.82-1.56-.21,1.69-1.48,2.22-2.86,2.64Z" transform="translate(272.12 726.13)"/><path class="cls-2" d="M-32.3,491.57c.61,1.91-.34,4.34,1.91,5.7,2.91-.37,4.74-4.72,7.61-3.25,3.11,1.6,1.24,5.1,1,7.9-.43,4,3.56,6.24,3.79,10.81.35,7,6.41,2.06,9.59,1.57,7.28-1.12,13.41,4.54,20.6,2.8q0-4.07,0-8.15c-5.82-1.41-11.32-4.21-17.67-3.14-2.85.47-6.3-2-6.16-4,.48-7.25-4.62-10.07-8.94-13.92-1.84-1.65-2.25-5.31-5.43-5.12-3.81.24-3.66,4-4.79,6.63A14.94,14.94,0,0,1-32.3,491.57Z" transform="translate(272.12 726.13)"/><path class="cls-2" d="M-146.51,109.83c-4.39.06-4.5-4-6.17-6.5s-3.68-4.47-6.44-3.43c-3.47,1.31-3.76,5.79-2.14,7.49,6.58,6.88,8.72,16.32,14.55,23.51,4.51,5.57,8.47,2.3,11.6-1.33,3.7-4.28,1.43-7.32-3-9.6-3.95-2-7.49-4.63-7.89-9.67Z" transform="translate(272.12 726.13)"/><path class="cls-2" d="M-197.52,246.06l5.75,5.64c6.64,1.47,10.25-.62,9.19-8-1-7.09,2.34-12.38,6.85-17.25,2.23-2.4,3.47-5.51.81-7.73-2.85-2.39-4.3,1.55-6.39,2.75-4.38,2.5-4.92,9.95-11.82,9.15l-.53.51C-196.12,235.82-203.46,239.22-197.52,246.06Z" transform="translate(272.12 726.13)"/><path class="cls-4" d="M-108.57,301.46c6.67.76,6.78-2.7,5.41-7.79-.63-2.33-6.23-3.54-2-6.93,2.82-2.22,5.52-.32,8.14,1.75-1.27-8.43-6.61-10.8-15.23-7.22-3.57,1.48-6.35,5.22-11.16,2.88-2-1-3.07,1.24-3,3.17.1,1.72-1.06,4.15,2.66,4.14a33.68,33.68,0,0,1,10.27,1.73c3.78,1.22,5.38,4.3,4.88,8.32Z" transform="translate(272.12 726.13)"/><path class="cls-4" d="M-136.95,259.07c-1.18,3.39-5.7.77-7,3.9,1.22,4.44,7.7,6.71,5.27,12.67-.3,2.67,2.73,2.73,3.54,4.53.56-2.52.65-5.27,1.79-7.49,1.32-2.57,2.94-6.69,7-3.73,3.27,2.4,6.22,3,7.85-.76,1.82-4.16-3-2.86-4.62-4.33C-127.12,260.16-130,253.86-136.95,259.07Z" transform="translate(272.12 726.13)"/><path class="cls-4" d="M42.42,251.77c.73-3.73,1.29-7.49,2.26-11.15.53-2,1.83-3.72-1-5.12-2.5-1.25-3.84-.22-4.95,1.83s-3,3.29-3.72,5.78c-1.25,4.35-3.33,8.9-7.52,1.62-1.31-2.28-3.6-1.77-5.53-1.27a3.54,3.54,0,0,0-2.23,2.27c-.36,2.6,1.62,3.73,3.76,4,6.25.72,4.2,8.87,10.28,10.69.23-5.54.76-11.33,8.69-8.68Z" transform="translate(272.12 726.13)"/><path class="cls-4" d="M-96.1,157a15.76,15.76,0,0,0-.85-3.59c-.9-2,.37-5.77-2.64-5.74s-4,3.23-3.2,6c.88,3-.4,3.5-2.86,3.88-2.86.44-5.65,1.36-8.49,2-1.9.39-4.54-.4-5,2.39-.41,2.6,1.69,4.25,3.35,5.88s4.5,3.27,6.22,1.31c3.39-3.83,6.71-6.71,12.25-6.67C-95.73,162.34-96,159.41-96.1,157Z" transform="translate(272.12 726.13)"/><path class="cls-4" d="M16.45,347.48c3.34-3.45,4.92-7.6,2-12.08C13.59,328,7.57,322.23-2.83,325.69c.79,3.26,3.68,3.2,6,4s4.86,2.24,3.62,4.95c-2.72,5.94-.87,6.17,4.68,5.45C15.88,339.51,11.87,346.11,16.45,347.48Z" transform="translate(272.12 726.13)"/><path class="cls-4" d="M155.62,177.16c.45-4.78,1-9.15-5.65-8.48-4.39.45-9.07,1.41-8.05,6.88.8,4.26,2.42,9.26,9,8.88C156.62,184.11,157.1,181.11,155.62,177.16Z" transform="translate(272.12 726.13)"/><path class="cls-4" d="M153.51,392.2c.29,4.28-.75,7.94-4.32,10.85-2.78,2.26-2.79,5.55.06,7.56,4,2.84,4.29-1.28,6-3.58,3.89-5.4,2.65-11.91,4.51-17.71.56-1.76,3.23-4.88-.59-5.85s-4.94,2.4-5.8,5.26C153,389.77,153.43,391,153.51,392.2Z" transform="translate(272.12 726.13)"/><path class="cls-4" d="M28.27,197.1c-2.76,6.31-9-.73-12.89,3.15-.94.94-3.9-.72-3.85,2.07.05,2,1.78,2.93,3.71,2.88,4.55-.13,8,.51,5.33,6.39-.22.48.45,1.37.71,2.07,1-.41,2.51-.52,3-1.27,2.57-4.11,2.51-9.46,6.28-13.13C31.29,198.52,30,197.26,28.27,197.1Z" transform="translate(272.12 726.13)"/><path class="cls-2" d="M-37.45,424c1.34,4.38-2.23,11.31,6.41,11.9,3.37.23,7.82.47,7.13-3.57-.57-3.42-1.4-8.93-6.86-9.47-2.2-.21-4.52.8-6.78,1.26Z" transform="translate(272.12 726.13)"/><path class="cls-4" d="M-71.78,191.69a2.79,2.79,0,0,0-2.83,2c-1.66,4.53-4.69,3.7-7.68,1.68-2-1.36-4.17-3.38-5.92-.54-1.6,2.58,2.15,2.85,2.82,4.18C-83,203.89-80.13,204.56-75,203c4.44-1.39,7.33-5.48,4.88-9.73A6.94,6.94,0,0,0-71.78,191.69Z" transform="translate(272.12 726.13)"/><path class="cls-4" d="M-110.7,207.79c-2.88,1.09-5.67,3.2-6.34,6.36-.61,2.87,2.42,4,4.78,3.82,4.92-.46,6.28,3.38,8.81,6.11,1.41,1.51,3.81,3.64,6.1,1.34,2.94-2.94-.18-4.12-2.2-4.92-4.43-1.74-2.71-7.62-6.87-9.6C-107.8,210.24-108.17,207.81-110.7,207.79Z" transform="translate(272.12 726.13)"/><path class="cls-4" d="M42.19,461.41c4,.24,8.37-.74,8.58-5.11.17-3.69-3.54-7.43-7.4-6.86-3.06.46-8,1.31-8.13,6.37C35.17,460.17,37.71,462.1,42.19,461.41Z" transform="translate(272.12 726.13)"/><path class="cls-4" d="M-66,106.26c-.22,2.46.25,5.72,5.54,5.27,3.08-.26,6.89-.66,6.57-4.28-.4-4.43-3.07-8.8-8.11-9.12C-66,97.88-65.82,101.8-66,106.26Z" transform="translate(272.12 726.13)"/><path class="cls-2" d="M77.62,527.56c0-2.35.44-4.8-.1-7-.85-3.53-4.09-6-7.09-4.75s0,3.92,1.12,5.8c1.77,3,1.55,6.28.78,9.38-.71,2.82-1.55,5.73,2.31,6,4.29.28,2.62-3.6,3-5.89a21.61,21.61,0,0,0,0-3.51Z" transform="translate(272.12 726.13)"/><path class="cls-2" d="M-124.52,195.45c3.21.93,4.22-1.36,5.49-3.36a7.83,7.83,0,0,0,.54-7.63c-1-2.19-2.91-1.66-3.82.41-.78,1.76-1.64,3.07-3.74,3.16-2.82.12-7-.69-6.44,3.67S-127,193.92-124.52,195.45Z" transform="translate(272.12 726.13)"/><path class="cls-4" d="M171.89,283.6c-2.78,5.5-4.68,10.33-8,14.51-1.29,1.63-1.47,5,1.06,6.24,2.92,1.46,2.92-1.64,3.85-3.3C171.75,295.89,178.84,291.68,171.89,283.6Z" transform="translate(272.12 726.13)"/><path class="cls-2" d="M-33.15,392.52c-.16,1-.33,2-.49,3.06A22.94,22.94,0,0,1-33,410.11c-.83,2.8.06,5.92,3,6.18,4.87.42,2.28-3.65,2.3-5.68.06-5.1-.38-10.22-.62-15.33l-2-3Z" transform="translate(272.12 726.13)"/><path class="cls-4" d="M153.35,274.93c-2.91,0-6.37.06-5.47,3.81s2.3,9.54,6,9.1,3.17-6.81,4.38-10.44C159.44,274,155.05,275.68,153.35,274.93Z" transform="translate(272.12 726.13)"/><path class="cls-4" d="M181.69,288.61c3.36-.47,5-2.63,4.05-4.36-1.79-3.36,1-9-4-10.11-2-.47-7.25,1.64-6.63,4.22C176,282.2,179.5,285.42,181.69,288.61Z" transform="translate(272.12 726.13)"/><path class="cls-4" d="M188,388.83c.62-3.91-1.67-4.45-4.16-4.47-4.15,0-7,2-6.6,6.28.39,4.1,3,9.67,6.29,9.3C189.76,399.23,185.42,392,188,388.83Z" transform="translate(272.12 726.13)"/><path class="cls-4" d="M-73,309.51c5.58.73,4-7,8.68-7.34-.59-1.8,3-5-1.34-5.35-2.46-.18-4.62-3.88-6.65-1.38-1.29,1.59-4.9,3.73-1.42,7.27C-72.47,304-73.18,307.19-73,309.51Z" transform="translate(272.12 726.13)"/><path class="cls-2" d="M-69.31,259.43c2.12-1.62.6-5.9,4.73-6.3A3.79,3.79,0,0,0-61,248.2c-.55-2.31-2.54-2.85-4.71-3.1-3.76-.44-3.2,2-3.38,4.41C-69.36,252.79-75.53,255.83-69.31,259.43Z" transform="translate(272.12 726.13)"/><path class="cls-4" d="M37.72,335.69c-3.66.55-3.37,4.49-4.25,6.64-1.41,3.42,2.4,5.56,5.05,6.61,1.76.69,5.33-.73,5.21-3.09A12.5,12.5,0,0,0,37.72,335.69Z" transform="translate(272.12 726.13)"/><path class="cls-2" d="M77.11,96.88c.54,2.86,4.1,2.69,4.9,5.56a7.29,7.29,0,0,0,5.58,4.89,1.82,1.82,0,0,0,2.15-2.08,12,12,0,0,0-3.88-7.56C83.26,95.4,80.36,94.89,77.11,96.88Z" transform="translate(272.12 726.13)"/><path class="cls-2" d="M-139,205.48l3.87,2.16c1.4-.27,2.78-.58,4.19-.79,3.14-.45,5-2.14,3.73-5.27-1.11-2.73-3.89-3.93-6.44-2.31-2.23,1.41-4.15,3-7,2.82l.09-.11C-140,203.14-139.5,204.31-139,205.48Z" transform="translate(272.12 726.13)"/><path class="cls-4" d="M-96.09,294.32a14.4,14.4,0,0,0,10.64,7.57c.93.14,2.64-1.39,3.12-2.52.71-1.67-.73-2.71-2.31-2.85-3.16-.29-5.27-2.3-7.51-4.16-.89-.73-1.92-1.61-3-.56C-95.69,292.31-95.74,293.31-96.09,294.32Z" transform="translate(272.12 726.13)"/><path class="cls-4" d="M-102.92,204.4c1.3,3.08,3.55,4.81,6.75,4.72,3.66-.11,5-3,5.1-6,.11-3.34-2.85-3.56-5-2.77C-98.53,201.27-102.24,200.51-102.92,204.4Z" transform="translate(272.12 726.13)"/><path class="cls-4" d="M122.84,242.32c3.37,3.08,3,8.76,8.48,10.12,2,.49,3.58.58,4.34-1.4.82-2.14-1.17-2.53-2.46-2.5C128.4,248.63,130.45,238.25,122.84,242.32Z" transform="translate(272.12 726.13)"/><path class="cls-4" d="M-34.17,106.13c3.61.16,6.56-.48,6.91-4.28a2.39,2.39,0,0,0-3.65-2.34c-2.93,1.79-8.26-1-9,3.48C-40.46,106.28-36.33,105.9-34.17,106.13Z" transform="translate(272.12 726.13)"/><path class="cls-4" d="M210.2,328.54c-6.13.35-7.29,4.59-7.1,9.35.07,1.71,1,4.4,3.5,4.34,3.44-.08,2.1-2.56,1.7-4.44C207.62,334.55,211.68,332.35,210.2,328.54Z" transform="translate(272.12 726.13)"/><path class="cls-4" d="M200.58,300.12c-2.65.31-4.05,2.26-3.36,4.18,1,2.8-.29,7.72,5,7.47,1.92-.09,4.44-1.26,3.79-3.74C205.19,304.88,204.8,301,200.58,300.12Z" transform="translate(272.12 726.13)"/><path class="cls-4" d="M162.77,356c3.15-2,3.62-4.61,4.19-7.12s5.77-4.85,1.63-7c-3.11-1.61-3.67,3.6-5.51,5.6C161,349.79,160.73,352.64,162.77,356Z" transform="translate(272.12 726.13)"/><path class="cls-4" d="M162.9,415.9c1.72-4.38,5.39-7.63,2.77-11.85-1-1.57-3.62-.32-4.57.92C158.25,408.67,158.38,412.35,162.9,415.9Z" transform="translate(272.12 726.13)"/><path class="cls-4" d="M65.08,474.42c2.7-2.17,3.5-2.54,3.47-2.83-.5-4.33,3.69-8.22,1.21-12.66a2.48,2.48,0,0,0-2.24.1C63.9,463.2,66.73,467.93,65.08,474.42Z" transform="translate(272.12 726.13)"/><path class="cls-2" d="M99.11,265,94,264.54c5.62,3.46,3,11.65,9.38,16.09C103.9,274.16,99.46,270.06,99.11,265Z" transform="translate(272.12 726.13)"/><path class="cls-4" d="M-65.39,279.6c-.31-4-.58-7.86.94-11.63.75-1.86-.07-3.53-2.34-3.64s-2.61,1.65-2.61,3.53C-69.4,272.18-68.57,276.19-65.39,279.6Z" transform="translate(272.12 726.13)"/><path class="cls-4" d="M125.26,186.24c.31,1.15.3,1.59.47,1.68,3.56,1.83,7.47,4.08,11.21,1.81s.46-5.28-5.26-4.35C129.7,185.71,127.7,185.92,125.26,186.24Z" transform="translate(272.12 726.13)"/><path class="cls-4" d="M43.81,224.37c-4.58-9.6-9.1-1-13.53-.65C34.5,224.92,38.67,226.28,43.81,224.37Z" transform="translate(272.12 726.13)"/><path class="cls-4" d="M1.81,471.6c5.55-.34,5.06-4,6.05-6.49.87-2.15,1.68-4.49-.19-6.53a2.61,2.61,0,0,0-2.35-.5c-3.29,1.35-1.09,3.7-1.14,5.81C4.12,466.22,2.82,468.52,1.81,471.6Z" transform="translate(272.12 726.13)"/><path class="cls-4" d="M42.52,182.69c-2.41,2.57-2.27,5.42-6.78,7.79l13.09.61C48.18,186.29,43.12,186.67,42.52,182.69Z" transform="translate(272.12 726.13)"/><path class="cls-4" d="M58.75,491.18c-.23,2.08.4,3.78,2.13,3.19,3.06-1.05,4.17-4,4.51-7,.26-2.19-1-4.78-3.26-4.07C58.36,484.52,60.56,489.08,58.75,491.18Z" transform="translate(272.12 726.13)"/><path class="cls-4" d="M64.88,174.63c4,2,7.94,4.09,10.61-.26.59-1,.52-3.16-.36-3A92.82,92.82,0,0,0,64.88,174.63Z" transform="translate(272.12 726.13)"/><path class="cls-4" d="M169.1,161.28c-2,0-3.79.58-3.51,2.84s.75,5,3.7,5c1.53,0,3.76-.85,3.76-2.91A4.75,4.75,0,0,0,169.1,161.28Z" transform="translate(272.12 726.13)"/><path class="cls-4" d="M98.24,381.2c7.78-1.66,9.23-6.22,11.2-10.27.09-.19-.83-1.22-1-1.15C103.58,371.5,102.61,376.38,98.24,381.2Z" transform="translate(272.12 726.13)"/><path class="cls-2" d="M-86,245.45c-2,1-4.62,1.49-4.51,4.52.07,1.76.85,4.14,2.54,3.73,2.17-.53,3.4-2.92,3.86-5.32C-83.83,246.8-84,245.52-86,245.45Z" transform="translate(272.12 726.13)"/><path class="cls-4" d="M3.4,400.43c1.89,0,4.65.84,4.48-2.29-.17-2.89-3.1-1.89-4.9-2.2s-4.64-.88-4.47,2.2C-1.34,401,1.55,400,3.4,400.43Z" transform="translate(272.12 726.13)"/><path class="cls-2" d="M-173,161.79c.94,1.84,2,3.68,4.22,4.06s3.15-1,3.14-3.07-1.26-3.11-3.23-3.35A3.52,3.52,0,0,0-173,161.79Z" transform="translate(272.12 726.13)"/><path class="cls-4" d="M-94,169.32c-3.17,2.88-6.25,5.8-4.74,11.56C-94.78,177.39-93.29,173.83-94,169.32Z" transform="translate(272.12 726.13)"/><path class="cls-4" d="M-91.36,153.86c3.31-3,4.55-5.67,3.45-9.05a2.32,2.32,0,0,0-2.11-.59C-93.24,146.52-92.83,149.61-91.36,153.86Z" transform="translate(272.12 726.13)"/><path class="cls-4" d="M137.54,397.52c-.72,4.36-.1,7.1,3.48,8.37.39.14,1.64-.84,1.77-1.46C143.65,400.38,140.87,399.27,137.54,397.52Z" transform="translate(272.12 726.13)"/><path class="cls-4" d="M-91.63,406c2.19-.17,2.74-1.45,2.19-2.43-1.7-3-3.84-5.87-7.66-6.34-1.09-.14-2.79.76-2.2,1.94C-97.59,402.52-94.08,404-91.63,406Z" transform="translate(272.12 726.13)"/><path class="cls-4" d="M182.9,371.65c.31,1.64,1.21,2.63,2.95,2.38a4,4,0,0,0,3.7-4.09c0-1.66-1.17-2.59-2.89-2.35C184.35,367.91,183.18,369.4,182.9,371.65Z" transform="translate(272.12 726.13)"/><path class="cls-4" d="M117,375c1.93-3.53,2.59-7.05.42-12.23C114.17,367.86,115.39,371.42,117,375Z" transform="translate(272.12 726.13)"/><path class="cls-2" d="M-81.67,281-75,274C-82.3,272-80.78,278-81.67,281Z" transform="translate(272.12 726.13)"/><path class="cls-2" d="M-90.72,358.37c-5.42,2.74-4,5.37-.25,8.87,2.27-3.68-.39-6.28.12-9Z" transform="translate(272.12 726.13)"/><path class="cls-4" d="M28.81,454.58c.51.17,1.52.79,1.81.55a2.6,2.6,0,0,0,.83-2.11c-.09-.57-1.11-1.48-1.55-1.39C28.59,451.9,28.43,453.05,28.81,454.58Z" transform="translate(272.12 726.13)"/><path class="cls-4" d="M135.25,241.54c1.75-1.47,3.09-2.64,2.5-4.65a1.63,1.63,0,0,0-1.45-.55C134.07,237.21,134.63,239,135.25,241.54Z" transform="translate(272.12 726.13)"/><path class="cls-4" d="M151.16,246.68c-.77,1-1.59,1.54-1.62,2.15s.76,1.23,1.18,1.84c.54-.53,1.38-1,1.51-1.61S151.69,247.77,151.16,246.68Z" transform="translate(272.12 726.13)"/><path class="cls-4" d="M-22.8,284.82a11.3,11.3,0,0,0,2.42,1.68c.89.35,1.83-.42,1.4-1.27a5.5,5.5,0,0,0-2.4-1.94C-22.51,282.69-22.72,283.54-22.8,284.82Z" transform="translate(272.12 726.13)"/><path class="cls-4" d="M42.47,251.72c.54,1.52-.54,3.65,1.62,4.52a1.48,1.48,0,0,0,1.24-.72c.31-2.19-1.34-3-2.91-3.75Z" transform="translate(272.12 726.13)"/><path class="cls-4" d="M-124.06,365.7a8.33,8.33,0,0,0,1.59.72,4.13,4.13,0,0,0,1.11-2c0-.94-.73-1.59-1.6-.83A6.7,6.7,0,0,0-124.06,365.7Z" transform="translate(272.12 726.13)"/><path class="cls-4" d="M7.51,378.21a6,6,0,0,0,1.77,1.13c.78.2,1.89-.09,1.6-1.19a3,3,0,0,0-1.76-1.71C8.26,376.17,7.5,376.74,7.51,378.21Z" transform="translate(272.12 726.13)"/><path class="cls-2" d="M4.78,223.82l-3-.44c.12,1-.44,2.43.95,2.52C3.38,225.94,4.1,224.56,4.78,223.82Z" transform="translate(272.12 726.13)"/><polygon class="cls-2" points="184.12 1008.54 184.31 1007.86 183.8 1007.96 184.12 1008.54"/><polygon class="cls-4" points="321.65 1061.4 321.23 1060.95 321.7 1061.34 321.65 1061.4"/><path class="cls-2" d="M70.23,56.73c-.17,0-.4,0-.5.05a1.42,1.42,0,0,0-.23.53l1-.07Z" transform="translate(272.12 726.13)"/><path class="cls-3" d="M268.15,406.32c0,5.81,3.75,7.49,7.89,8.36a3.89,3.89,0,0,0,4.94-4.5c-.83-4.78-5-7.17-9.29-8.05C268.62,401.51,268.23,404.45,268.15,406.32Z" transform="translate(272.12 726.13)"/><path class="cls-3" d="M70.67,314.83c-2.43-4.21-4.86-7.49-9.58-8.29-2.29-.38-4.26.33-5.05,2.44-1,2.8,1.77,3.83,3.33,4C62.93,313.49,66.17,316.2,70.67,314.83Z" transform="translate(272.12 726.13)"/><path class="cls-3" d="M60.67,283.56c-.12,2.1.68,3.59,2.38,2.77,2.73-1.33,6.66-1.54,7.44-5.19.46-2.11-.84-3.65-3.68-3.43C62.75,278,62.13,281.31,60.67,283.56Z" transform="translate(272.12 726.13)"/><path class="cls-3" d="M107.33,223.62c-1.14.87-2.17,1.25-2.28,1.81-.68,3.27-5.94,4.7-3.71,9a2.33,2.33,0,0,0,3.73.65C108.58,232.08,108.41,228.26,107.33,223.62Z" transform="translate(272.12 726.13)"/><path class="cls-3" d="M-165.68,285.22c1.65.49,4,.46,4.82,1.56,2.17,3,4.3,5.37,7.69,2.23,4.06-3.77-3.42-3.76-2.61-6.13.33-2.09,1.63-2,2.69-2.33,2.24-.78,4.75,2.73,6.45.13,2.43-3.72-2.05-3.81-3.55-5.49-2.79-3.09,1.64-8.44-3.37-10.86-8.14,2-10.05,4.43-10.8,13.18C-164.59,280.08-166.43,282.44-165.68,285.22Z" transform="translate(272.12 726.13)"/><path class="cls-3" d="M-197.52,246.06c-5.94-6.84,1.4-10.24,3.86-14.9-5.33-1.7-9.86-.25-10.47,5.4C-204.55,240.49-204.91,246.57-197.52,246.06Z" transform="translate(272.12 726.13)"/><path class="cls-3" d="M-191.74,169.54c.53,2.66,2,5,4.94,5.13s3.57-2.56,3.55-5c0-2.67-1.33-4.67-4.13-4.74S-191.58,166.6-191.74,169.54Z" transform="translate(272.12 726.13)"/><path class="cls-3" d="M-5.68,66.86c1-7.88-6.14-15-2.17-23.15,2-4.16,2.17-8.28,1.33-12.88C-7.72,24.16-4.35,21.45,2.2,23c8.52,2,10.39,5.38,7.62,13.86-3.75,11.48.79,18.1,12.55,18.26a49.43,49.43,0,0,1,5.31.1c5.39.68,9,3.73,8.82,9.2-.28,6.92-5.92,3.73-9.52,4.06a7.57,7.57,0,0,1-7-3c-1.37-1.74-3.91-3.12-5.39-1.48-5.93,6.53-13.24,2.74-20,3.3Zm2.14-10.25c1.2,3.41,4.21,3.91,7.27,3.46,4.05-.6,2.82-3.4,2.39-6.08-1-6.36-2-12.78.33-19.1,1.5-4.07-.35-6.23-4.17-6.95-4.42-.84-4.89,2.12-4.58,5.36C-1.74,39-4.42,44.19-5,49.86A49.58,49.58,0,0,0-3.54,56.61Z" transform="translate(272.12 726.13)"/><path class="cls-3" d="M-165.24,445.59c3-.09,5.38-.49,5.24-3.14-.2-4-3.22-6.54-6.56-7.45-2.92-.79-5.16,2.25-5.4,4.73C-172.48,445-166.51,443-165.24,445.59Z" transform="translate(272.12 726.13)"/><path class="cls-3" d="M192.12,265.21c3.89-.63,9.6.49,10.57-2.86,1.19-4.15-.5-9.49-2.05-13.92-.95-2.73-4.43-2.34-7-1.33-1.6.61-3.89,1.13-4.44,2.34-1,2.32,1.67,4.28,3,4.65,10.34,2.87,5,5.7.23,8.76C192.1,263,192.25,263.91,192.12,265.21Z" transform="translate(272.12 726.13)"/><path class="cls-2" d="M-206.48,187.16c-2,.15-4.09.2-6.1.5s-3.4,1.8-2.9,3.65c2.18,8,9.65,2.42,14.11,5.16,2.14,1.31,4.72-.2,4.55-3.36-.25-5-3.63-6.14-7.91-6C-205.31,187.19-205.9,187.16-206.48,187.16Z" transform="translate(272.12 726.13)"/><path class="cls-3" d="M-58.66,441c0-2.58.58-5.23-1.49-8.3a29.47,29.47,0,0,1-12.54,9.71c-3.27,1.42-7.13,3.33-6.17,8.39.2,1.05,0,3-1.45,2.6-6.15-1.51-8.63,3.1-8.54,7,.1,4.31,3.56,8.14,8.51,9.39Z" transform="translate(272.12 726.13)"/><path class="cls-3" d="M-58.52,411.58c-.11,2-.07,4-.37,5.91-.43,2.86,0,6.08,3.2,5.61,3.76-.55.46-3.46.47-5.31,0-2.17,2-2.61,3-3.86C-53.91,412.09-55.91,411-58.52,411.58Z" transform="translate(272.12 726.13)"/><path class="cls-3" d="M-33.15,392.52l2.81-.26a4.42,4.42,0,0,0,.17-1.7c-.79-2.39-.76-5.27-3.11-6.82a1.74,1.74,0,0,0-2.6,1.33C-36.23,387.94-36.42,390.91-33.15,392.52Z" transform="translate(272.12 726.13)"/><path class="cls-3" d="M-41,243.22l1.17.36a9,9,0,0,0,0-1.37c0-.13-.41-.21-.63-.31C-40.61,242.34-40.8,242.78-41,243.22Z" transform="translate(272.12 726.13)"/><path class="cls-3" d="M-162.84,355c-.15-.54-.12-1.35-.48-1.6-4.44-3.15-7.42-7.73-5.36-12.64,1.93-4.6,7.48-1.25,13.9-3-9.12-.85-14.2-5.5-20.43-7.77-3.09.78-5.47,2.22-5.15,5.91.27,3.07,2.64,3.25,5,3.72,4.46.87,3.59,4.87,3.78,7.79C-171.17,353.09-169.13,356.32-162.84,355Z" transform="translate(272.12 726.13)"/><path class="cls-3" d="M-174.72,324.37c2.46-1.82,1.93-4.12.53-6.08-1.21-1.69-3.07-3.4-2.32-5.35,3-7.93,1.31-13.68-6.84-17-.49.28-1.42.65-1.39.83C-182.81,306.51-182.07,316.65-174.72,324.37Z" transform="translate(272.12 726.13)"/><path class="cls-3" d="M16.19,312.22c1.23.08,2.4-.14,2.62-1.54.26-1.6-1.09-2-2.21-1.93-.75,0-1.94.57-2.13,1.15C14.05,311.14,14.78,312.06,16.19,312.22Z" transform="translate(272.12 726.13)"/><path class="cls-3" d="M-71.17,415.17c-1.74.47-6-1.25-3.82,2.94,2.48,4.79,4.48,11.18,12.34,9.83,1.5-7.37-8.79-6.62-8.64-12.88Z" transform="translate(272.12 726.13)"/><path class="cls-3" d="M-76.76,428.51c-.45.6-1.43,1.44-1.28,1.77,1.38,3.07-4.33,4.38-1.82,7.42.47.56,2.53.56,3.25,0C-73.26,435.23-75.59,431.94-76.76,428.51Z" transform="translate(272.12 726.13)"/><polygon class="cls-3" points="220.91 1151.11 221.44 1151.3 221.38 1150.8 220.91 1151.11"/><path class="cls-3" d="M-73.42,346.34c4.49,4.14,6.77,4.78,10,.92Z" transform="translate(272.12 726.13)"/><path class="cls-3" d="M-94.22,337.4a9,9,0,0,0,2.08.84c.17,0,.82-1.19.69-1.33a8.94,8.94,0,0,0-1.82-1.27Z" transform="translate(272.12 726.13)"/><path class="cls-3" d="M-138.7,275.64c2.43-6-4.05-8.23-5.27-12.67-4.55,1.62-3.77,5.7-2.9,8.59C-145.84,274.94-142.71,276.83-138.7,275.64Z" transform="translate(272.12 726.13)"/><path class="cls-2" d="M-5,49.86a49.58,49.58,0,0,0,1.44,6.75c1.2,3.41,4.21,3.91,7.27,3.46,4.05-.6,2.82-3.4,2.39-6.08-1-6.36-2-12.78.33-19.1,1.5-4.07-.35-6.23-4.17-6.95-4.42-.84-4.89,2.12-4.58,5.36C-1.74,39-4.42,44.19-5,49.86Z" transform="translate(272.12 726.13)"/><text class="cls-5" transform="translate(309.16 1160)">Tips to <tspan class="cls-6" x="382.67" y="0">A</tspan><tspan x="461.99" y="0">void </tspan><tspan x="0" y="120">Covid</tspan><tspan class="cls-7" x="302.88" y="120">-</tspan><tspan x="328.8" y="120">19</tspan></text><path d="M56,1423.22H29.27v-10.56h78.82v10.56H67.32v72.57H56Z" transform="translate(272.12 726.13)"/><path d="M98.25,1440.13h10.57v55.66H98.25Z" transform="translate(272.12 726.13)"/><path d="M125.68,1440.13h10.56v8h.24c4.11-6,11.86-9.4,19.37-9.4,17.26,0,28.3,12.8,28.3,29.24,0,16.67-11.15,29.24-28.3,29.24-8,0-15.61-3.64-19.37-9.39h-.24v41.09H125.68ZM136.24,1468c0,11.27,7,19.37,18.32,19.37s18.32-8.1,18.32-19.37-7-19.37-18.32-19.37S136.24,1456.69,136.24,1468Z" transform="translate(272.12 726.13)"/><path d="M224.08,1454.11a14.11,14.11,0,0,0-11.39-5.52c-4.93,0-9.28,2.23-9.28,6.22,0,6.69,9.51,7.63,14.21,8.69,9.16,2.23,16.2,5.75,16.2,16.2,0,12.57-11.5,17.5-22.54,17.5-9.16,0-16-2.35-21.49-9.87l8-6.57c3.41,3.41,7.4,6.57,13.51,6.57,5.4,0,11.27-2.23,11.27-7,0-6.34-8.81-7.51-13.39-8.57-9-2.23-17-5.17-17-15.85,0-11.63,10.68-17.15,21.13-17.15,7.4,0,15,2.59,19,9.16Z" transform="translate(272.12 726.13)"/><path d="M295.39,1449.29H280.25v25.25c0,6.22,0,12.79,8,12.79a15,15,0,0,0,7.51-1.64v9.63c-2.46,1.41-7.39,1.88-9.51,1.88-16.32,0-16.55-10-16.55-18.91v-29H257.47v-9.16h12.21v-15.62h10.57v15.62h15.14Z" transform="translate(272.12 726.13)"/><path d="M329.05,1438.72A29.24,29.24,0,1,1,299.46,1468,29.25,29.25,0,0,1,329.05,1438.72Zm0,48.61c11.28,0,18.32-8.1,18.32-19.37s-7-19.37-18.32-19.37-18.31,8.1-18.31,19.37S317.78,1487.33,329.05,1487.33Z" transform="translate(272.12 726.13)"/><path d="M426.69,1412.66h10.22l35.58,83.13H459.34L451,1475.24H411.43l-8.22,20.55H390.06Zm20.2,52.72-15.5-38.16h-.24l-15.73,38.16Z" transform="translate(272.12 726.13)"/><path d="M468.85,1440.13h12.21l16.68,42.63,16-42.63H525l-21.84,55.66H491.51Z" transform="translate(272.12 726.13)"/><path d="M558.21,1438.72A29.24,29.24,0,1,1,528.62,1468,29.25,29.25,0,0,1,558.21,1438.72Zm0,48.61c11.27,0,18.32-8.1,18.32-19.37s-7-19.37-18.32-19.37-18.32,8.1-18.32,19.37S546.94,1487.33,558.21,1487.33Z" transform="translate(272.12 726.13)"/><path d="M599,1440.13h10.57v55.66H599Z" transform="translate(272.12 726.13)"/><path d="M679.16,1495.79H668.59v-8h-.24c-4.11,6-11.85,9.39-19.37,9.39-17.26,0-28.3-12.8-28.3-29.24,0-16.67,11.16-29.24,28.3-29.24,8,0,15.62,3.64,19.37,9.4h.24V1407h10.57ZM668.59,1468c0-11.27-7.05-19.37-18.32-19.37S632,1456.69,632,1468s7,19.37,18.32,19.37S668.59,1479.23,668.59,1468Z" transform="translate(272.12 726.13)"/><path d="M106.55,1548.05a25.53,25.53,0,0,0-20.08-9.51c-18.67,0-31,14.91-31,33.81,0,17.5,11.62,32.41,31,32.41a25.63,25.63,0,0,0,21.73-11.15l9.51,7.16c-2.47,3.4-12.45,14.56-31.47,14.56-26.42,0-42.74-22.08-42.74-43,0-25.83,17.73-44.38,43.33-44.38,10.92,0,22.42,4.11,29.12,12.91Z" transform="translate(272.12 726.13)"/><path d="M211.77,1530.08h13l24.43,67.64h.23l25.36-67.64h12.33l-32.76,83.14H243.82Z" transform="translate(272.12 726.13)"/><path d="M294.2,1530.08h11.27v83.14H294.2Z" transform="translate(272.12 726.13)"/><path d="M322,1530.08h29c35.11,0,43.68,26.19,43.68,41.57,0,21.25-15.85,41.57-45.56,41.57H322Zm11.27,72.57h14.21c19,0,35.23-10.45,35.23-31,0-10.57-5.52-31-32.53-31H333.3Z" transform="translate(272.12 726.13)"/><path d="M430.3,1589.73H401.41v-9.86H430.3Z" transform="translate(272.12 726.13)"/><path d="M454.37,1543l-15.27,14.09-6.57-7.87,23.13-19.14h10v83.14H454.37Z" transform="translate(272.12 726.13)"/><path d="M524.47,1581H524a21,21,0,0,1-9.16,1.88c-12,0-25.71-8.1-25.71-26.3s12.91-27.95,28.53-27.95,28.53,10.57,28.53,26.77c0,10.22-3.28,16.56-8.33,24.55l-21,33.23H503.57Zm-6.81-42.5c-10.33,0-17.26,7.16-17.26,17.26s6.93,17.26,17.26,17.26,17.26-7.16,17.26-17.26S528,1538.54,517.66,1538.54Z" transform="translate(272.12 726.13)"/><polygon class="cls-8" points="403.05 2278.71 403.05 2322.7 441.14 2344.69 479.23 2322.7 479.23 2278.71 441.14 2256.72 403.05 2278.71"/><line class="cls-8" x1="441.14" y1="2344.69" x2="441.14" y2="2393.09"/><rect x="871.07" y="2144.15" width="10.57" height="10.57"/><polygon class="cls-1" points="512.26 1810.62 512.26 1847.28 544 1865.61 575.75 1847.28 575.75 1810.62 544 1792.3 512.26 1810.62"/><polygon class="cls-9" points="578.4 1828.45 578.4 1885.33 627.65 1913.76 676.9 1885.33 676.9 1828.45 627.65 1800.02 578.4 1828.45"/><polygon class="cls-10" points="522.98 1918.97 522.98 1977.65 573.8 2006.99 624.62 1977.65 624.62 1918.97 573.8 1889.63 522.98 1918.97"/><polygon class="cls-9" points="456.48 1964.03 456.48 2011.01 497.17 2034.51 537.86 2011.01 537.86 1964.03 497.17 1940.54 456.48 1964.03"/><polygon class="cls-11" points="741.51 1883.95 741.51 1973.01 818.64 2017.54 895.77 1973.01 895.77 1883.95 818.64 1839.42 741.51 1883.95"/><polygon class="cls-12" points="662.54 1770.08 662.54 1845.23 727.62 1882.81 792.71 1845.23 792.71 1770.08 727.62 1732.5 662.54 1770.08"/><polygon class="cls-13" points="1061.08 2024.44 1258.54 1912.85 1258.54 1689.6 1065.22 1575.59 869.82 1686.01 867.76 1910.44 1061.08 2024.44"/><polygon class="cls-14" points="402.17 2007.73 450.86 1980.21 451.37 1924.28 403.2 1895.87 354.5 1923.39 353.99 1979.32 402.17 2007.73"/><polygon class="cls-1" points="351.56 1996.6 366.83 1987.97 366.99 1970.43 351.88 1961.52 336.61 1970.15 336.44 1987.69 351.56 1996.6"/><polygon class="cls-15" points="848.57 1792.04 960 1729.07 961.18 1601.08 850.93 1536.07 739.5 1599.04 738.32 1727.03 848.57 1792.04"/></svg>