<svg id="图层_1" data-name="图层 1" xmlns="http://www.w3.org/2000/svg" viewBox="0 0 986.43 525.86"><defs><style>.cls-1{fill:none;stroke:#000;stroke-miterlimit:10;stroke-width:10px;}</style></defs><title>text1</title><path d="M56,75.16H29.27V64.59h78.82V75.16H67.32v72.57H56Z"/><path d="M98.25,92.07h10.57v55.66H98.25Z"/><path d="M125.68,92.07h10.56v8h.24c4.11-6,11.86-9.39,19.37-9.39,17.26,0,28.3,12.8,28.3,29.24,0,16.67-11.15,29.24-28.3,29.24-8,0-15.61-3.64-19.37-9.4h-.24v41.1H125.68Zm10.56,27.83c0,11.27,7,19.37,18.32,19.37s18.32-8.1,18.32-19.37-7-19.38-18.32-19.38S136.24,108.62,136.24,119.9Z"/><path d="M224.08,106a14.13,14.13,0,0,0-11.39-5.52c-4.93,0-9.28,2.23-9.28,6.23,0,6.69,9.51,7.63,14.21,8.69,9.16,2.23,16.2,5.75,16.2,16.2,0,12.56-11.5,17.5-22.54,17.5-9.16,0-16-2.35-21.49-9.87l8-6.57c3.41,3.4,7.4,6.57,13.51,6.57,5.4,0,11.27-2.23,11.27-7,0-6.35-8.81-7.52-13.39-8.58-9-2.23-17-5.16-17-15.85,0-11.62,10.68-17.14,21.13-17.14,7.4,0,15,2.58,19,9.16Z"/><path d="M295.39,101.23H280.25v25.24c0,6.23,0,12.8,8,12.8a15,15,0,0,0,7.51-1.64v9.63c-2.46,1.4-7.39,1.88-9.51,1.88-16.32,0-16.55-10-16.55-18.91v-29H257.47V92.07h12.21V76.45h10.57V92.07h15.14Z"/><path d="M329.05,90.66a29.24,29.24,0,1,1-29.59,29.24A29.24,29.24,0,0,1,329.05,90.66Zm0,48.61c11.28,0,18.32-8.1,18.32-19.37s-7-19.38-18.32-19.38-18.31,8.1-18.31,19.38S317.78,139.27,329.05,139.27Z"/><path d="M426.69,64.59h10.22l35.58,83.14H459.34L451,127.18H411.43l-8.22,20.55H390.06Zm20.2,52.72-15.5-38.16h-.24l-15.73,38.16Z"/><path d="M468.85,92.07h12.21l16.68,42.62,16-42.62H525l-21.84,55.66H491.51Z"/><path d="M558.21,90.66a29.24,29.24,0,1,1-29.59,29.24A29.24,29.24,0,0,1,558.21,90.66Zm0,48.61c11.27,0,18.32-8.1,18.32-19.37s-7-19.38-18.32-19.38-18.32,8.1-18.32,19.38S546.94,139.27,558.21,139.27Z"/><path d="M599,92.07h10.57v55.66H599Z"/><path d="M679.16,147.73H668.59v-8h-.24c-4.11,6-11.85,9.4-19.37,9.4-17.26,0-28.3-12.8-28.3-29.24,0-16.68,11.16-29.24,28.3-29.24,8,0,15.62,3.64,19.37,9.39h.24V59h10.57ZM668.59,119.9c0-11.28-7.05-19.38-18.32-19.38S632,108.62,632,119.9s7,19.37,18.32,19.37S668.59,131.17,668.59,119.9Z"/><path d="M106.55,200a25.56,25.56,0,0,0-20.08-9.51c-18.67,0-31,14.91-31,33.82,0,17.5,11.62,32.41,31,32.41a25.61,25.61,0,0,0,21.73-11.16l9.51,7.16c-2.47,3.41-12.45,14.57-31.47,14.57-26.42,0-42.74-22.08-42.74-43,0-25.83,17.73-44.39,43.33-44.39,10.92,0,22.42,4.11,29.12,12.92Z"/><path d="M211.77,182h13l24.43,67.63h.23L274.82,182h12.33l-32.76,83.13H243.82Z"/><path d="M294.2,182h11.27v83.13H294.2Z"/><path d="M322,182h29c35.11,0,43.68,26.18,43.68,41.56,0,21.26-15.85,41.57-45.56,41.57H322Zm11.27,72.56h14.21c19,0,35.23-10.45,35.23-31,0-10.56-5.52-31-32.53-31H333.3Z"/><path d="M430.3,241.67H401.41V231.8H430.3Z"/><path d="M454.37,194.93,439.1,209l-6.57-7.86L455.66,182h10v83.13H454.37Z"/><path d="M524.47,233H524a21,21,0,0,1-9.16,1.88c-12,0-25.71-8.1-25.71-26.31s12.91-27.94,28.53-27.94,28.53,10.57,28.53,26.77c0,10.22-3.28,16.56-8.33,24.54l-21,33.23H503.57Zm-6.81-42.51c-10.33,0-17.26,7.16-17.26,17.26S507.33,225,517.66,225s17.26-7.16,17.26-17.26S528,190.47,517.66,190.47Z"/><polygon class="cls-1" points="130.94 204.52 130.94 248.5 169.03 270.5 207.12 248.5 207.12 204.52 169.03 182.53 130.94 204.52"/><line class="cls-1" x1="169.03" y1="270.5" x2="169.03" y2="318.89"/><rect x="598.96" y="69.96" width="10.57" height="10.57"/></svg>